<?xml version="1.0" encoding="UTF-8"?>
<svg width="14px" height="14px" viewBox="0 0 14 14" version="1.1" xmlns="http://www.w3.org/2000/svg" xmlns:xlink="http://www.w3.org/1999/xlink">
    <!-- Generator: Sketch 51.2 (57519) - http://www.bohemiancoding.com/sketch -->
    <title>case</title>
    <desc>Created with Sketch.</desc>
    <defs></defs>
    <g id="case" stroke="none" stroke-width="1" fill="none" fill-rule="evenodd">
        <path d="M1.90909091,4.6 C1.55763698,4.6 1.27272727,4.86862915 1.27272727,5.2 L1.27272727,11.2 C1.27272727,11.5313708 1.55763698,11.8 1.90909091,11.8 L12.0909091,11.8 C12.442363,11.8 12.7272727,11.5313708 12.7272727,11.2 L12.7272727,5.2 C12.7272727,4.86862915 12.442363,4.6 12.0909091,4.6 L1.90909091,4.6 Z M1.90909091,3.4 L12.0909091,3.4 C13.1452709,3.4 14,4.20588745 14,5.2 L14,11.2 C14,12.1941125 13.1452709,13 12.0909091,13 L1.90909091,13 C0.854729114,13 1.41301112e-16,12.1941125 0,11.2 L0,5.2 C-1.41301112e-16,4.20588745 0.854729114,3.4 1.90909091,3.4 Z M10.1818182,12.4 C10.1818182,12.7313708 9.89690848,13 9.54545455,13 C9.19400061,13 8.90909091,12.7313708 8.90909091,12.4 L8.90909091,2.8 C8.90909091,2.46862915 8.6241812,2.2 8.27272727,2.2 L5.72727273,2.2 C5.3758188,2.2 5.09090909,2.46862915 5.09090909,2.8 L5.09090909,12.4 C5.09090909,12.7313708 4.80599939,13 4.45454545,13 C4.10309152,13 3.81818182,12.7313708 3.81818182,12.4 L3.81818182,2.8 C3.81818182,1.80588745 4.67291093,1 5.72727273,1 L8.27272727,1 C9.32708907,1 10.1818182,1.80588745 10.1818182,2.8 L10.1818182,12.4 Z" fill="#000000" fill-rule="nonzero"></path>
    </g>
</svg>