<?xml version="1.0" encoding="UTF-8"?>
<svg width="14px" height="14px" viewBox="0 0 14 14" version="1.1" xmlns="http://www.w3.org/2000/svg" xmlns:xlink="http://www.w3.org/1999/xlink">
    <!-- Generator: Sketch 51.2 (57519) - http://www.bohemiancoding.com/sketch -->
    <title>clock</title>
    <desc>Created with Sketch.</desc>
    <defs></defs>
    <g id="clock" stroke="none" stroke-width="1" fill="none" fill-rule="evenodd">
        <path d="M7,14 C3.13400675,14 0,10.8659932 0,7 C0,3.13400675 3.13400675,0 7,0 C10.8659932,0 14,3.13400675 14,7 C14,10.8659932 10.8659932,14 7,14 Z M7.63636364,6.60670564 L7.63636364,3.18181818 C7.63636364,2.83036425 7.35145393,2.54545455 7,2.54545455 C6.64854607,2.54545455 6.36363636,2.83036425 6.36363636,3.18181818 L6.36363636,7 C6.36363636,7.24103676 6.49981969,7.46138602 6.71540953,7.56918094 L9.26086408,8.84190821 C9.57521403,8.99908319 9.95746051,8.8716677 10.1146355,8.55731774 C10.2718105,8.24296779 10.144395,7.86072131 9.83004502,7.70354633 L7.63636364,6.60670564 Z" fill="#000000" fill-rule="nonzero"></path>
    </g>
</svg>