<?xml version="1.0" encoding="UTF-8"?>
<svg width="12px" height="12px" viewBox="0 0 12 12" version="1.1" xmlns="http://www.w3.org/2000/svg" xmlns:xlink="http://www.w3.org/1999/xlink">
    <!-- Generator: Sketch 52.1 (67048) - http://www.bohemiancoding.com/sketch -->
    <title>Combined Shape</title>
    <desc>Created with Sketch.</desc>
    <g id="4️⃣--FFR---Lot-4" stroke="none" stroke-width="1" fill="none" fill-rule="evenodd">
        <g id="14_0_Espace_perso" transform="translate(-132.000000, -482.000000)" fill="#000" fill-rule="nonzero">
            <g id="Content" transform="translate(100.000000, 104.000000)">
                <g id="Left">
                    <g id="Navigation" transform="translate(0.000000, 328.000000)">
                        <g id="Items" transform="translate(0.000000, 36.000000)">
                            <g id="grid" transform="translate(32.000000, 14.000000)">
                                <path d="M0.6,0 L4.8,0 C5.13137085,0 5.4,0.26862915 5.4,0.6 L5.4,4.8 C5.4,5.13137085 5.13137085,5.4 4.8,5.4 L0.6,5.4 C0.26862915,5.4 0,5.13137085 0,4.8 L0,0.6 C0,0.26862915 0.26862915,0 0.6,0 Z M7.2,0 L11.4,0 C11.7313708,0 12,0.26862915 12,0.6 L12,4.8 C12,5.13137085 11.7313708,5.4 11.4,5.4 L7.2,5.4 C6.86862915,5.4 6.6,5.13137085 6.6,4.8 L6.6,0.6 C6.6,0.26862915 6.86862915,0 7.2,0 Z M7.2,6.6 L11.4,6.6 C11.7313708,6.6 12,6.86862915 12,7.2 L12,11.4 C12,11.7313708 11.7313708,12 11.4,12 L7.2,12 C6.86862915,12 6.6,11.7313708 6.6,11.4 L6.6,7.2 C6.6,6.86862915 6.86862915,6.6 7.2,6.6 Z M0.6,6.6 L4.8,6.6 C5.13137085,6.6 5.4,6.86862915 5.4,7.2 L5.4,11.4 C5.4,11.7313708 5.13137085,12 4.8,12 L0.6,12 C0.26862915,12 0,11.7313708 0,11.4 L0,7.2 C0,6.86862915 0.26862915,6.6 0.6,6.6 Z" id="Combined-Shape"></path>
                            </g>
                        </g>
                    </g>
                </g>
            </g>
        </g>
    </g>
</svg>
