<?xml version="1.0" encoding="UTF-8"?>
<svg width="14px" height="14px" viewBox="0 0 14 14" version="1.1" xmlns="http://www.w3.org/2000/svg" xmlns:xlink="http://www.w3.org/1999/xlink">
    <!-- Generator: Sketch 51.2 (57519) - http://www.bohemiancoding.com/sketch -->
    <title>download</title>
    <desc>Created with Sketch.</desc>
    <defs></defs>
    <g id="download" stroke="none" stroke-width="1" fill="none" fill-rule="evenodd">
        <path d="M7.7,7.41005051 L10.0050253,5.10502525 C10.2783923,4.83165825 10.7216077,4.83165825 10.9949747,5.10502525 C11.2683418,5.37839226 11.2683418,5.82160774 10.9949747,6.09497475 L7.49497475,9.59497475 C7.22160774,9.86834175 6.77839226,9.86834175 6.50502525,9.59497475 L3.00502525,6.09497475 C2.73165825,5.82160774 2.73165825,5.37839226 3.00502525,5.10502525 C3.27839226,4.83165825 3.72160774,4.83165825 3.99497475,5.10502525 L6.3,7.41005051 L6.3,0.7 C6.3,0.313400675 6.61340068,0 7,0 C7.38659932,0 7.7,0.313400675 7.7,0.7 L7.7,7.41005051 Z M12.6,9.1 C12.6,8.71340068 12.9134007,8.4 13.3,8.4 C13.6865993,8.4 14,8.71340068 14,9.1 L14,11.9 C14,13.059798 13.059798,14 11.9,14 L2.1,14 C0.940202025,14 0,13.059798 0,11.9 L0,9.1 C0,8.71340068 0.313400675,8.4 0.7,8.4 C1.08659932,8.4 1.4,8.71340068 1.4,9.1 L1.4,11.9 C1.4,12.2865993 1.71340068,12.6 2.1,12.6 L11.9,12.6 C12.2865993,12.6 12.6,12.2865993 12.6,11.9 L12.6,9.1 Z" fill="#000000" fill-rule="nonzero"></path>
    </g>
</svg>