<svg width="19" height="18" xmlns="http://www.w3.org/2000/svg"><path d="M4.58 9.104a1 1 0 0 1-.124 1.409l-1.532 1.285a1 1 0 1 1-1.285-1.532L3.17 8.981a1 1 0 0 1 1.408.123zm12.789 5.31c-.985.827-2.542.963-4.228.487l5.442-4.566c.176 1.743-.23 3.253-1.214 4.08zM7.83 11.316A11.77 11.77 0 0 1 5.59 7.238l6.757-5.67a11.782 11.782 0 0 1 3.627 2.916 11.783 11.783 0 0 1 2.241 4.078l-6.756 5.67a11.771 11.771 0 0 1-3.628-2.916zm-1.395-9.93C7.421.559 8.978.423 10.664.899L5.223 5.465c-.176-1.743.229-3.253 1.213-4.08zM5.58 13.104a1 1 0 0 1-.123 1.409l-3.064 2.57a1 1 0 1 1-1.286-1.531l3.065-2.571a1 1 0 0 1 1.408.123zm4 2a1 1 0 0 1-.123 1.409l-1.532 1.285a1 1 0 1 1-1.285-1.532l1.532-1.285a1 1 0 0 1 1.408.123z" fill="#292929" fill-rule="evenodd"/></svg>