<svg xmlns="http://www.w3.org/2000/svg" width="3" height="15" viewBox="0 0 3 15">
  <path d="M18.5,26 C19.3284271,26 20,25.4074357 20,24.6764706 C20,23.9455055 19.3284271,23.3529412 18.5,23.3529412 C17.6715729,23.3529412 17,23.9455055 17,24.6764706 C17,25.4074357 17.6715729,26 18.5,26 Z M18,11 L19,11 C19.5522847,11 20,11.4477153 20,12 L20,20.5882353 C20,21.14052 19.5522847,21.5882353 19,21.5882353 L18,21.5882353 C17.4477153,21.5882353 17,21.14052 17,20.5882353 L17,12 C17,11.4477153 17.4477153,11 18,11 Z" transform="translate(-17 -11)"/>
</svg>
