<?xml version="1.0" encoding="UTF-8"?>
<svg width="14px" height="14px" viewBox="0 0 14 14" version="1.1" xmlns="http://www.w3.org/2000/svg" xmlns:xlink="http://www.w3.org/1999/xlink">
    <!-- Generator: Sketch 52.2 (67145) - http://www.bohemiancoding.com/sketch -->
    <title>custom_experience</title>
    <desc>Created with Sketch.</desc>
    <defs>
        <path d="M6.7154152,0.0671826966 C6.89456549,-0.0223942322 7.10543451,-0.0223942322 7.2845848,0.0671826966 L13.6480944,3.24900088 C14.117116,3.48351632 14.117116,4.15284731 13.6480944,4.38736276 L7.2845848,7.56918094 C7.10543451,7.65875787 6.89456549,7.65875787 6.7154152,7.56918094 L0.351905558,4.38736276 C-0.11711599,4.15284731 -0.11711599,3.48351632 0.351905558,3.24900088 L6.7154152,0.0671826966 Z M7,12.6521602 L13.0789248,9.61263724 C13.3932685,9.45546227 13.7755074,9.58287776 13.9326792,9.89722771 C14.0898511,10.2115777 13.9624381,10.5938241 13.6480944,10.7509991 L7.2845848,13.9328173 C7.10543451,14.0223942 6.89456549,14.0223942 6.7154152,13.9328173 L0.351905558,10.7509991 C0.0375618652,10.5938241 -0.0898510909,10.2115777 0.0673207556,9.89722771 C0.224492602,9.58287776 0.60673147,9.45546227 0.921075163,9.61263724 L7,12.6521602 Z M13.0789248,6.43081906 C13.3932685,6.27364408 13.7755074,6.40105958 13.9326792,6.71540953 C14.0898511,7.02975948 13.9624381,7.41200596 13.6480944,7.56918094 L7.2845848,10.7509991 C7.10543451,10.8405761 6.89456549,10.8405761 6.7154152,10.7509991 L0.351905558,7.56918094 C0.0375618652,7.41200596 -0.0898510909,7.02975948 0.0673207556,6.71540953 C0.224492602,6.40105958 0.60673147,6.27364408 0.921075163,6.43081906 L7,9.47034201 L13.0789248,6.43081906 Z" id="path-1"></path>
    </defs>
    <g id="custom_experience" stroke="none" stroke-width="1" fill="none" fill-rule="evenodd">
        <mask id="mask-2" fill="white">
            <use xlink:href="#path-1"></use>
        </mask>
        <use id="Combined-Shape-Copy" fill="#000000" fill-rule="nonzero" xlink:href="#path-1"></use>
    </g>
</svg>