<?xml version="1.0" encoding="UTF-8"?>
<svg width="14px" height="14px" viewBox="0 0 14 14" version="1.1" xmlns="http://www.w3.org/2000/svg" xmlns:xlink="http://www.w3.org/1999/xlink">
    <!-- Generator: Sketch 51.2 (57519) - http://www.bohemiancoding.com/sketch -->
    <title>external_link</title>
    <desc>Created with Sketch.</desc>
    <defs></defs>
    <g id="external_link" stroke="none" stroke-width="1" fill="none" fill-rule="evenodd">
        <path d="M11.6100505,1.4 L9.1,1.4 C8.71340068,1.4 8.4,1.08659932 8.4,0.7 C8.4,0.313400675 8.71340068,0 9.1,0 L13.3,0 C13.6865993,0 14,0.313400675 14,0.7 L14,4.9 C14,5.28659932 13.6865993,5.6 13.3,5.6 C12.9134007,5.6 12.6,5.28659932 12.6,4.9 L12.6,2.38994949 L6.09497475,8.89497475 C5.82160774,9.16834175 5.37839226,9.16834175 5.10502525,8.89497475 C4.83165825,8.62160774 4.83165825,8.17839226 5.10502525,7.90502525 L11.6100505,1.4 Z M10.5,7.7 C10.5,7.31340068 10.8134007,7 11.2,7 C11.5865993,7 11.9,7.31340068 11.9,7.7 L11.9,11.9 C11.9,13.059798 10.959798,14 9.8,14 L2.1,14 C0.940202025,14 0,13.059798 0,11.9 L0,4.2 C0,3.04020203 0.940202025,2.1 2.1,2.1 L6.3,2.1 C6.68659932,2.1 7,2.41340068 7,2.8 C7,3.18659932 6.68659932,3.5 6.3,3.5 L2.1,3.5 C1.71340068,3.5 1.4,3.81340068 1.4,4.2 L1.4,11.9 C1.4,12.2865993 1.71340068,12.6 2.1,12.6 L9.8,12.6 C10.1865993,12.6 10.5,12.2865993 10.5,11.9 L10.5,7.7 Z" fill="#000000" fill-rule="nonzero"></path>
    </g>
</svg>