<?xml version="1.0" encoding="UTF-8"?>
<svg width="14px" height="14px" viewBox="0 0 14 14" version="1.1" 
    xmlns="http://www.w3.org/2000/svg" 
    xmlns:xlink="http://www.w3.org/1999/xlink">
    <g id="Sites-ligues-Évolutions" stroke="none" stroke-width="1" fill="none" fill-rule="evenodd">
        <g id="Flickr" transform="translate(-17.000000, -17.000000)" fill="#000000">
            <g id="Youtube">
                <g id="00_Icons/02_Social/Générique/Social_White_Youtube" transform="translate(17.000000, 17.000000)">
                    <g id="Flickr" transform="translate(0.000000, 1.000000)">
                        <path d="M12,-1 C13.1045695,-1 14,-0.1045695 14,1 L14,11 C14,12.1045695 13.1045695,13 12,13 L2,13 C0.8954305,13 1.13686838e-13,12.1045695 1.13686838e-13,11 L1.13686838e-13,1 C1.13686838e-13,-0.1045695 0.8954305,-1 2,-1 L12,-1 Z M6.26782979,5.79506383 C6.26782979,4.46726809 5.27710638,3.39081702 4.05505532,3.39081702 C2.83294468,3.39081702 1.84228085,4.46720851 1.84228085,5.79506383 C1.84228085,7.12285957 2.83300426,8.19931064 4.05505532,8.19931064 C5.27716596,8.19931064 6.26782979,7.12291915 6.26782979,5.79506383 Z M11.9274043,5.76348936 C11.9274043,4.45332766 10.9081447,3.39117447 9.65082553,3.39117447 C8.39350638,3.39117447 7.37424681,4.45326809 7.37424681,5.76348936 C7.37424681,7.07365106 8.39350638,8.13580426 9.65082553,8.13580426 C10.9081447,8.13580426 11.9274043,7.07371064 11.9274043,5.76348936 Z" id="Combined-Shape"></path>
                    </g>
                </g>
            </g>
        </g>
    </g>
</svg>