<?xml version="1.0" encoding="UTF-8"?>
<svg width="14px" height="14px" viewBox="0 0 14 14" version="1.1" xmlns="http://www.w3.org/2000/svg" xmlns:xlink="http://www.w3.org/1999/xlink">
    <!-- Generator: Sketch 52.2 (67145) - http://www.bohemiancoding.com/sketch -->
    <title>hotesses</title>
    <desc>Created with Sketch.</desc>
    <g id="hotesses" stroke="none" stroke-width="1" fill="none" fill-rule="evenodd">
        <path d="M10.5,12.4 C10.5,12.7313708 10.2388328,13 9.91666667,13 C9.59450056,13 0.905499437,13 0.583333333,13 C0.261167229,13 0,12.7313708 0,12.4 L0,11.2 C1.94289029e-16,9.54314575 1.30583615,8.2 2.91666667,8.2 L7.58333333,8.2 C9.19416385,8.2 10.5,9.54314575 10.5,11.2 L10.5,12.4 Z M5.25,7 C3.63916948,7 2.33333333,5.65685425 2.33333333,4 C2.33333333,2.34314575 3.63916948,1 5.25,1 C6.86083052,1 8.16666667,2.34314575 8.16666667,4 C8.16666667,5.65685425 6.86083052,7 5.25,7 Z M14,12.4 C14,12.7313708 13.7388328,13 13.4166667,13 C13.0945006,13 12.8333333,12.7313708 12.8333333,12.4 L12.8333335,11.2004475 C12.8327386,10.3801505 12.2930205,9.66402163 11.5208335,9.45894755 C11.2088975,9.37610492 11.0213151,9.04884864 11.1018566,8.72800017 C11.182398,8.4071517 11.5005638,8.21420983 11.8124998,8.29705245 C13.0994781,8.63884259 13.9990084,9.83239076 14,11.2 L14,12.4 Z M9.18864381,2.25925 C8.8765454,2.17705704 8.68831935,1.850192 8.76822917,1.52917649 C8.84813898,1.20816098 9.16592444,1.01455704 9.47802286,1.09675 C10.7685858,1.43662734 11.6712419,2.63274336 11.6712419,4.003 C11.6712419,5.37325664 10.7685858,6.56937266 9.47802286,6.90925 C9.16592444,6.99144296 8.84813898,6.79783902 8.76822917,6.47682351 C8.68831935,6.155808 8.8765454,5.82894296 9.18864381,5.74675 C9.96298155,5.5428236 10.5045752,4.82515398 10.5045752,4.003 C10.5045752,3.18084602 9.96298155,2.4631764 9.18864381,2.25925 Z" id="Combined-Shape" fill="#000000" fill-rule="nonzero"></path>
    </g>
</svg>