<?xml version="1.0" encoding="UTF-8"?>
<svg width="14px" height="14px" viewBox="0 0 14 14" version="1.1" xmlns="http://www.w3.org/2000/svg" xmlns:xlink="http://www.w3.org/1999/xlink">
    <!-- Generator: Sketch 51.2 (57519) - http://www.bohemiancoding.com/sketch -->
    <title>instagram</title>
    <desc>Created with Sketch.</desc>
    <defs></defs>
    <g id="instagram" stroke="none" stroke-width="1" fill="none" fill-rule="evenodd">
        <path d="M2.625,1.75 C2.14175084,1.75 1.75,2.14175084 1.75,2.625 L1.75,11.375 C1.75,11.8582492 2.14175084,12.25 2.625,12.25 L11.375,12.25 C11.8582492,12.25 12.25,11.8582492 12.25,11.375 L12.25,2.625 C12.25,2.14175084 11.8582492,1.75 11.375,1.75 L2.625,1.75 Z M2.625,0 L11.375,0 C12.8247475,-1.94289029e-16 14,1.17525253 14,2.625 L14,11.375 C14,12.8247475 12.8247475,14 11.375,14 L2.625,14 C1.17525253,14 1.94289029e-16,12.8247475 0,11.375 L0,2.625 C-1.94289029e-16,1.17525253 1.17525253,2.91433544e-16 2.625,0 Z M7.24749448,5.33083916 C6.52739237,5.22405707 5.81998768,5.59111554 5.49269674,6.24136942 C5.16540581,6.89162329 5.29201954,7.67846654 5.8067765,8.1932235 C6.32153346,8.70798046 7.10837671,8.83459419 7.75863058,8.50730326 C8.40888446,8.18001232 8.77594293,7.47260763 8.66916084,6.75250552 C8.56012639,6.0172143 7.9827857,5.43987361 7.24749448,5.33083916 Z M8.60158098,10.1820571 C7.2288228,10.8730047 5.56770928,10.605709 4.48100015,9.51899985 C3.39429101,8.43229072 3.12699534,6.7711772 3.81794287,5.39841902 C4.5088904,4.02566084 6.00230031,3.25075962 7.52251587,3.47618848 C9.07479735,3.70637232 10.2936277,4.92520265 10.5238115,6.47748413 C10.7492404,7.99769969 9.97433916,9.4911096 8.60158098,10.1820571 Z M10.9375,3.5 C10.6958754,3.5 10.5,3.30412458 10.5,3.0625 C10.5,2.82087542 10.6958754,2.625 10.9375,2.625 C11.1791246,2.625 11.375,2.82087542 11.375,3.0625 C11.375,3.30412458 11.1791246,3.5 10.9375,3.5 Z" fill="#000000" fill-rule="nonzero"></path>
    </g>
</svg>