<?xml version="1.0" encoding="UTF-8"?>
<svg width="14px" height="14px" viewBox="0 0 14 14" version="1.1" xmlns="http://www.w3.org/2000/svg" xmlns:xlink="http://www.w3.org/1999/xlink">
    <!-- Generator: Sketch 52.2 (67145) - http://www.bohemiancoding.com/sketch -->
    <title>Maillot</title>
    <desc>Created with Sketch.</desc>
    <g id="Maillot" stroke="none" stroke-width="1" fill="none" fill-rule="evenodd">
        <path d="M1.06593407,6.13380284 L1,6.06296112 L1,2.78312587 L1.04246185,2.71692515 L1.34233928,2.59418404 L4.99469065,1.12261066 L5.30851145,1 L5.38308916,1.02308397 L5.58161987,1.29738374 C5.65468163,1.39259066 5.79220204,1.53784469 5.98202787,1.68325224 C6.29687878,1.92442964 6.64018629,2.06857817 7,2.06857817 C7.35981371,2.06857817 7.70312122,1.92442964 8.01797213,1.68325224 C8.20779796,1.53784469 8.34531837,1.39259066 8.4172067,1.29895797 L8.61691084,1.02308397 L8.69148855,1 L9.00592783,1.12285608 L12.6579819,2.59431449 L12.9575382,2.71692515 L13,2.78312587 L13,6.06296112 L12.9340659,6.13380284 L11.1741336,6.13380284 L11.1741336,12.9291583 L11.1081995,13 L2.89180051,13 L2.82586644,12.9291583 L2.82586644,6.13380284 L1.06593407,6.13380284 Z M4.48943364,7.11468815 C4.71856013,7.11468815 4.86709167,7.05865545 5.10819949,6.90789545 L5.10819949,9.4960597 L5.17413356,9.56690142 L6.08706678,9.56690142 L6.15300085,9.4960597 L6.15300085,5.57251847 L6.08706678,5.50167675 L5.11707523,5.50167675 L5.06286476,5.53219465 L4.93448352,5.73143698 C4.91173061,5.7569735 4.86017371,5.80852423 4.79401567,5.85997432 C4.68720817,5.94303687 4.5820187,5.9921194 4.48943364,5.9921194 L4.42349958,6.06296112 L4.42349958,7.04384643 L4.48943364,7.11468815 Z M8.14116653,5.50167675 C7.48067693,5.50167675 6.93406593,6.08897348 6.93406593,6.7986251 L6.93406593,8.26995307 C6.93406593,8.97960501 7.48067678,9.56690142 8.14116653,9.56690142 C8.80165658,9.56690142 9.34826712,8.97960518 9.34826712,8.26995307 L9.34826712,6.7986251 C9.34826712,6.08897332 8.80165642,5.50167675 8.14116653,5.50167675 Z M8.14116653,6.62424549 C8.04741671,6.62424549 7.97886729,6.69789724 7.97886729,6.7986251 L7.97886729,8.26995307 C7.97886729,8.37068093 8.04741671,8.44433268 8.14116653,8.44433268 C8.23491634,8.44433268 8.30346577,8.37068093 8.30346577,8.26995307 L8.30346577,6.7986251 C8.30346577,6.69789724 8.23491634,6.62424549 8.14116653,6.62424549 Z" fill="#000000" fill-rule="nonzero"></path>
    </g>
</svg>