<?xml version="1.0" encoding="UTF-8"?>
<svg width="14px" height="14px" viewBox="0 0 14 14" version="1.1" xmlns="http://www.w3.org/2000/svg" xmlns:xlink="http://www.w3.org/1999/xlink">
    <!-- Generator: Sketch 51.2 (57519) - http://www.bohemiancoding.com/sketch -->
    <title>Like_fb</title>
    <desc>Created with Sketch.</desc>
    <defs></defs>
    <g id="Like_fb" stroke="none" stroke-width="1" fill="none" fill-rule="evenodd">
        <g id="Icons/Pictos/14px/Social/Like_fb" transform="translate(1.000000, 1.000000)" fill="#000000">
            <path d="M0,12 L2.55747735,12 L2.55747735,4.85299562 L0,4.85299562 L0,12 Z M11.2262016,6.33639608 L11.2262016,6.04028069 C12.1079148,6.04028069 12.397818,4.26429422 11.2262016,4.26429422 L7.37598148,4.26429422 C7.58877116,3.82523874 7.60441211,3.86935605 8.01762421,2.48830775 C8.43083631,1.10725945 6.78526277,-1.16495854 6.09233227,0.71232128 C5.96029354,1.07020091 5.95119997,1.53219739 5.7715109,1.89642991 C5.54817267,2.34995586 5.45941937,2.70042378 5.12986817,3.0801856 C4.53587578,3.76488626 3.54467598,4.94299493 3.20493997,5.15228746 L3.20493997,11.3678872 L9.66137903,11.3608284 C11.3007689,11.3608284 11.1188974,9.88801609 10.2637375,9.88801609 L10.2637375,9.59225364 C11.3967971,9.59225364 11.8482022,8.11202962 10.9053802,8.11202962 L10.9053802,7.81626716 C11.8500209,7.81626716 12.2057616,6.33639608 11.2262016,6.33639608 L11.2262016,6.33639608 Z" id="Icon:-Like"></path>
        </g>
    </g>
</svg>