<?xml version="1.0" encoding="UTF-8"?>
<svg width="14px" height="11px" viewBox="0 0 14 11" version="1.1" xmlns="http://www.w3.org/2000/svg" xmlns:xlink="http://www.w3.org/1999/xlink">
    <!-- Generator: Sketch 51.3 (57544) - http://www.bohemiancoding.com/sketch -->
    <title>Icons/Pictos/14px/Social/Mail</title>
    <desc>Created with Sketch.</desc>
    <defs></defs>
    <g id="💎-Symbols" stroke="none" stroke-width="1" fill="none" fill-rule="evenodd">
        <g id="01_CTA/Social/Mail_Normal" transform="translate(-80.000000, -23.000000)" fill="#000">
            <g id="Email">
                <g id="00_Icons/02_Social/Générique/Social_White_Mail" transform="translate(80.000000, 21.000000)">
                    <g id="mail" transform="translate(0.000000, 2.000000)">
                        <path d="M1.90913065,1.22222222 C1.5605873,1.22222222 1.27277198,1.49861846 1.27277198,1.83333333 L1.27277198,9.16666667 C1.27277198,9.50138154 1.5605873,9.77777778 1.90913065,9.77777778 L12.0908694,9.77777778 C12.4394127,9.77777778 12.727228,9.50138154 12.727228,9.16666667 L12.727228,1.83333333 C12.727228,1.49861846 12.4394127,1.22222222 12.0908694,1.22222222 L1.90913065,1.22222222 Z M1.90913065,0 L12.0908694,0 C13.1423151,0 13.9999454,0.823603764 13.9999454,1.83333333 L13.9999454,9.16666667 C13.9999454,10.1763962 13.1423151,11 12.0908694,11 L1.90913065,11 C0.857684922,11 5.46391881e-05,10.1763962 5.46391881e-05,9.16666667 L5.46391881e-05,1.83333333 C5.46391881e-05,0.823603764 0.857684922,0 1.90913065,0 Z M7,6.36515493 L12.998659,2.3326916 C13.286579,2.13914385 13.683368,1.20638733 13.884912,1.48288412 C14.086456,1.75938092 14.0164345,2.14042731 13.7285144,2.33397506 L7.36492773,6.61175284 C7.14581662,6.75904535 6.85418338,6.75904535 6.63507227,6.61175284 L0.271485574,2.33397506 C-0.016434458,2.14042731 -0.0864560488,1.75938092 0.115087974,1.48288412 C0.316631996,1.20638733 0.713421011,2.13914385 1.00134104,2.3326916 L7,6.36515493 Z" id="Combined-Shape" fill-rule="nonzero"></path>
                    </g>
                </g>
            </g>
        </g>
    </g>
</svg>
