<?xml version="1.0" encoding="UTF-8"?>
<svg width="14px" height="14px" viewBox="0 0 14 14" version="1.1" xmlns="http://www.w3.org/2000/svg" xmlns:xlink="http://www.w3.org/1999/xlink">
    <!-- Generator: Sketch 51.2 (57519) - http://www.bohemiancoding.com/sketch -->
    <title>phone</title>
    <desc>Created with Sketch.</desc>
    <defs></defs>
    <g id="phone" stroke="none" stroke-width="1" fill="none" fill-rule="evenodd">
        <path d="M4.5638852,-1.03584031e-16 L9.4361148,1.03584031e-16 C10.3276335,-6.01853049e-17 10.6509198,0.0928256111 10.9768457,0.267132704 C11.3027716,0.441439796 11.5585602,0.697228371 11.7328673,1.0231543 C11.9071744,1.34908022 12,1.67236646 12,2.5638852 L12,11.4361148 C12,12.3276335 11.9071744,12.6509198 11.7328673,12.9768457 C11.5585602,13.3027716 11.3027716,13.5585602 10.9768457,13.7328673 C10.6509198,13.9071744 10.3276335,14 9.4361148,14 L4.5638852,14 C3.67236646,14 3.34908022,13.9071744 3.0231543,13.7328673 C2.69722837,13.5585602 2.4414398,13.3027716 2.2671327,12.9768457 C2.09282561,12.6509198 2,12.3276335 2,11.4361148 L2,2.5638852 C2,1.67236646 2.09282561,1.34908022 2.2671327,1.0231543 C2.4414398,0.697228371 2.69722837,0.441439796 3.0231543,0.267132704 C3.34908022,0.0928256111 3.67236646,6.01853049e-17 4.5638852,-1.03584031e-16 Z M4.2819426,1 C3.83618323,1 3.67454011,1.04641281 3.51157715,1.13356635 C3.34861419,1.2207199 3.2207199,1.34861419 3.13356635,1.51157715 C3.04641281,1.67454011 3,1.83618323 3,2.2819426 L3,8.7180574 C3,9.16381677 3.04641281,9.32545989 3.13356635,9.48842285 C3.2207199,9.65138581 3.34861419,9.7792801 3.51157715,9.86643365 C3.67454011,9.95358719 3.83618323,10 4.2819426,10 L9.7180574,10 C10.1638168,10 10.3254599,9.95358719 10.4884229,9.86643365 C10.6513858,9.7792801 10.7792801,9.65138581 10.8664336,9.48842285 C10.9535872,9.32545989 11,9.16381677 11,8.7180574 L11,2.2819426 C11,1.83618323 10.9535872,1.67454011 10.8664336,1.51157715 C10.7792801,1.34861419 10.6513858,1.2207199 10.4884229,1.13356635 C10.3254599,1.04641281 10.1638168,1 9.7180574,1 L4.2819426,1 Z M7,13 C7.55228475,13 8,12.5522847 8,12 C8,11.4477153 7.55228475,11 7,11 C6.44771525,11 6,11.4477153 6,12 C6,12.5522847 6.44771525,13 7,13 Z" id="Combined-Shape" fill="#000000" fill-rule="nonzero"></path>
    </g>
</svg>