<?xml version="1.0" encoding="UTF-8"?>
<svg width="8px" height="12px" viewBox="0 0 8 12" version="1.1" xmlns="http://www.w3.org/2000/svg" xmlns:xlink="http://www.w3.org/1999/xlink">
    <!-- Generator: Sketch 50.2 (55047) - http://www.bohemiancoding.com/sketch -->
    <title>Phone</title>
    <desc>Created with Sketch.</desc>
    <defs></defs>
    <g id="Symbols" stroke="none" stroke-width="1" fill="none" fill-rule="evenodd">
        <g id="Icons/Pictos/12px/White/Phone" transform="translate(-2.000000, 0.000000)" fill="#000000">
            <path d="M4.06730769,0 C2.93235385,0 2,0.823898088 2,1.82812479 L2,10.1718684 C2,11.1772228 2.93235385,12 4.06730769,12 L7.93269231,12 C9.06764615,12 10,11.1772228 10,10.1718684 L10,1.82812479 C10,0.823898088 9.06764615,1.55027488e-14 7.93269231,1.55027488e-14 L4.06730769,1.55027488e-14 Z M3.35576923,2.03267022 C3.36537933,2.03227043 3.37500529,2.03227043 3.38461538,2.03267022 L8.61538462,2.03267022 C8.78529542,2.03267115 8.92304401,2.15476648 8.92307692,2.30539747 L8.92307692,7.75993685 C8.92304401,7.91056783 8.78529542,8.03266316 8.61538462,8.03266409 L3.38461538,8.03266409 C3.21470458,8.03266316 3.07695599,7.91056783 3.07692308,7.75993685 L3.07692308,2.30539747 C3.07625257,2.16421288 3.19721385,2.04590594 3.35576923,2.03267022 Z M6,8.62925493 C6.67646615,8.62925493 7.23076923,9.12057305 7.23076923,9.7201639 C7.23076923,10.3189502 6.67646462,10.8110729 6,10.8110729 C5.32445077,10.8110729 4.76923077,10.3189502 4.76923077,9.7201639 C4.76923077,9.12057305 5.32445077,8.62925493 6,8.62925493 Z" id="Phone"></path>
        </g>
    </g>
</svg>