<?xml version="1.0" encoding="UTF-8"?>
<svg width="14px" height="14px" viewBox="0 0 14 14" version="1.1" xmlns="http://www.w3.org/2000/svg" xmlns:xlink="http://www.w3.org/1999/xlink">
    <!-- Generator: Sketch 51.2 (57519) - http://www.bohemiancoding.com/sketch -->
    <title>pj</title>
    <desc>Created with Sketch.</desc>
    <defs></defs>
    <g id="pj" stroke="none" stroke-width="1" fill="none" fill-rule="evenodd">
        <path d="M10.3845183,1.0001472 C9.44221594,1.00839647 8.50265263,1.37135622 7.77675126,2.05603013 L7.75483725,2.05603013 L7.75483725,2.07802769 L3.54734754,6.30155941 C2.69818005,7.15396525 2.69818005,8.55081037 3.54734754,9.40321551 C4.39651574,10.2556213 5.7880553,10.2556213 6.6372228,9.40321551 L10.2968623,5.72962282 L9.28881787,4.73973258 L5.6510924,8.41332526 C5.37990636,8.68554526 4.80466398,8.68554526 4.53347794,8.41332526 C4.26229191,8.14110527 4.26229191,7.56366965 4.53347794,7.29144965 L8.74096765,3.0899155 C9.67505211,2.20726354 11.0967236,2.1467699 11.940413,3.04592038 C12.8087554,3.97256746 12.8060163,5.45465331 11.962327,6.30155941 L7.75483725,10.5250911 C6.34686253,11.9961782 3.98562772,11.9384348 2.49547511,10.5030936 C1.02449744,9.08425087 1.00806159,6.73876111 2.49547511,5.24567648 L5.10324217,2.64996428 L4.11711177,1.63807647 L1.50934471,4.25578623 C-0.50948318,6.28231136 -0.504005029,9.55444892 1.53125872,11.5149814 C3.53912961,13.4507667 6.77966385,13.538757 8.74096765,11.5149814 C8.74918558,11.5067321 8.75466373,11.5012331 8.76288166,11.4929838 L12.9484574,7.29144965 C14.3482149,5.88635527 14.3454758,3.54636524 12.9703714,2.07802769 C12.2691231,1.33011062 11.3268207,0.991897943 10.3845183,1.0001472 Z" fill="#000000" fill-rule="nonzero"></path>
    </g>
</svg>