<svg xmlns="http://www.w3.org/2000/svg" width="13" height="13" viewBox="0 0 13 13">
  <path d="M10.1158421,0.403489308 C10.2415699,0.277770122 10.2032488,0.136008715 10.0302523,0.0967618208 C8.76236495,-0.195996651 7.43312027,0.185529897 6.5135049,1.10615648 C5.54425695,2.07540442 5.33649236,2.97151416 5.34006276,4.05580188 C5.34362448,4.97600023 5.13944473,5.76691911 4.27451383,6.54088729 L0.606112814,9.82456099 C0.103815835,10.2741389 -0.108766793,10.9645761 0.0536676552,11.6188219 C0.216102104,12.2730677 0.726932281,12.7838979 1.38117809,12.9463323 C2.0354239,13.1087668 2.72586113,12.8961842 3.17543901,12.3938872 L6.45911271,8.72548617 C7.23308089,7.86056105 8.02399977,7.65637552 8.94419812,7.65993724 C10.0284815,7.6635163 10.9245956,7.45574305 11.8938435,6.4864951 C12.8144701,5.56687973 13.1959967,4.23763505 12.9032382,2.96974774 C12.8639913,2.79675116 12.7222299,2.75843009 12.5965107,2.88415794 L10.3655415,5.11511851 C10.2225443,5.24372371 10.0267698,5.29638733 9.83855011,5.25687992 L8.52156569,4.90468767 C8.42191545,4.87303439 8.33280729,4.81475632 8.26386613,4.73614831 C8.18525132,4.66720441 8.1269681,4.57809103 8.09531233,4.47843431 L7.74311575,3.16144989 C7.70360834,2.97323023 7.75627196,2.77745569 7.88487716,2.63445854 L10.1158421,0.403489308 Z M6.61549414,6.61574129 L7.8172519,5.24541017 C7.16888796,5.3516045 6.56767835,5.55974655 6.00675258,5.8867293 C6.16993939,6.15857913 6.37494854,6.40478677 6.61549414,6.61574129 Z"/>
</svg>
