<?xml version="1.0" encoding="UTF-8"?>
<svg width="14px" height="14px" viewBox="0 0 14 14" version="1.1" xmlns="http://www.w3.org/2000/svg" xmlns:xlink="http://www.w3.org/1999/xlink">
    <!-- Generator: Sketch 51.2 (57519) - http://www.bohemiancoding.com/sketch -->
    <title>RT</title>
    <desc>Created with Sketch.</desc>
    <defs></defs>
    <g id="RT" stroke="none" stroke-width="1" fill="none" fill-rule="evenodd">
        <g id="Icons/Pictos/14px/Social/RT" transform="translate(1.000000, 0.000000)" fill="#000000" fill-rule="nonzero">
            <path d="M2.22294336,11.3181818 L3.57251726,12.643218 C3.76956251,12.8366806 3.77246682,13.1532498 3.57900421,13.350295 C3.3855416,13.5473403 3.06897243,13.5502446 2.87192718,13.356782 L0.64970496,11.1749638 C0.450098347,10.9789864 0.450098347,10.6573772 0.64970496,10.4613998 L2.87192718,8.27958165 C3.06897243,8.08611904 3.3855416,8.08902335 3.57900421,8.2860686 C3.77246682,8.48311385 3.76956251,8.79968301 3.57251726,8.99314562 L2.22294336,10.3181818 L8.77777778,10.3181818 C9.73096756,10.3181818 10.5,9.56313179 10.5,8.63636364 L10.5,7.54545455 C10.5,7.26931217 10.7238576,7.04545455 11,7.04545455 C11.2761424,7.04545455 11.5,7.26931217 11.5,7.54545455 L11.5,8.63636364 C11.5,10.1195653 10.2791869,11.3181818 8.77777778,11.3181818 L2.22294336,11.3181818 Z M9.77705664,3.68181818 L3.22222222,3.68181818 C2.26903244,3.68181818 1.5,4.43686821 1.5,5.36363636 L1.5,6.45454545 C1.5,6.73068783 1.27614237,6.95454545 1,6.95454545 C0.723857625,6.95454545 0.5,6.73068783 0.5,6.45454545 L0.5,5.36363636 C0.5,3.8804347 1.72081312,2.68181818 3.22222222,2.68181818 L9.77705664,2.68181818 L8.42748274,1.35678199 C8.23043749,1.16331938 8.22753318,0.846750209 8.42099579,0.64970496 C8.6144584,0.452659711 8.93102757,0.449755406 9.12807282,0.643218015 L11.350295,2.8250362 C11.5499017,3.0210136 11.5499017,3.34262276 11.350295,3.53860017 L9.12807282,5.72041835 C8.93102757,5.91388096 8.6144584,5.91097665 8.42099579,5.7139314 C8.22753318,5.51688615 8.23043749,5.20031699 8.42748274,5.00685438 L9.77705664,3.68181818 Z" id="Combined-Shape"></path>
        </g>
    </g>
</svg>