<?xml version="1.0" encoding="UTF-8"?>
<svg width="14px" height="14px" viewBox="0 0 14 14" version="1.1" xmlns="http://www.w3.org/2000/svg" xmlns:xlink="http://www.w3.org/1999/xlink">
    <!-- Generator: Sketch 52.2 (67145) - http://www.bohemiancoding.com/sketch -->
    <title>salles_reunions</title>
    <desc>Created with Sketch.</desc>
    <g id="salles_reunions" stroke="none" stroke-width="1" fill="none" fill-rule="evenodd">
        <path d="M9.66666667,2.54545455 C9.29847683,2.54545455 9,2.26054484 9,1.90909091 C9,1.55763698 9.29847683,1.27272727 9.66666667,1.27272727 L11,1.27272727 C12.1045695,1.27272727 13,2.12745639 13,3.18181818 L13,12.0909091 C13,13.1452709 12.1045695,14 11,14 L3,14 C1.8954305,14 1,13.1452709 1,12.0909091 L1,3.18181818 C1,2.12745639 1.8954305,1.27272727 3,1.27272727 L4.33333333,1.27272727 C4.70152317,1.27272727 5,1.55763698 5,1.90909091 C5,2.26054484 4.70152317,2.54545455 4.33333333,2.54545455 L4.40875787,2.90634974 C4.04056803,2.90634974 10.0348565,3.01512208 9.66666667,3.01512208 L9.66666667,2.54545455 Z M5,0 L9,0 C9.73637967,-1.41301112e-16 10.3333333,0.569819409 10.3333333,1.27272727 L10.3333333,2.54545455 C10.3333333,3.24836241 9.73637967,3.81818182 9,3.81818182 L5,3.81818182 C4.26362033,3.81818182 3.66666667,3.24836241 3.66666667,2.54545455 L3.66666667,1.27272727 C3.66666667,0.569819409 4.26362033,1.41301112e-16 5,0 Z M5,1.27272727 L5,2.54545455 L9,2.54545455 L9,1.27272727 L5,1.27272727 Z" id="Combined-Shape" fill="#000000" fill-rule="nonzero"></path>
    </g>
</svg>