<?xml version="1.0" encoding="UTF-8"?>
<svg width="14px" height="14px" viewBox="0 0 14 14" version="1.1" xmlns="http://www.w3.org/2000/svg" xmlns:xlink="http://www.w3.org/1999/xlink">
    <!-- Generator: Sketch 51.2 (57519) - http://www.bohemiancoding.com/sketch -->
    <title>site</title>
    <desc>Created with Sketch.</desc>
    <defs></defs>
    <g id="site" stroke="none" stroke-width="1" fill="none" fill-rule="evenodd">
        <path d="M5.05133291,8.15386831 C4.75332284,7.75518197 4.83470156,7.19027894 5.2331566,6.89202092 C5.63174463,6.59366337 6.19661164,6.67515187 6.49472112,7.07397121 C6.87120999,7.57764872 7.4477074,7.89283834 8.0745888,7.93776606 C8.7014733,7.982694 9.31694749,7.75293036 9.76141624,7.30798644 L11.5908923,5.47741095 C12.4119471,4.62670978 12.4002041,3.2743908 11.5645027,2.43809926 C10.7297819,1.6027889 9.37879949,1.58933465 8.53727106,2.40256335 L7.48207429,3.45236613 C7.12910012,3.80353596 6.5583884,3.8018709 6.20746732,3.44864837 C5.85666825,3.09554864 5.85833102,2.52481609 6.2111912,2.17375966 L7.27568771,1.11483766 C8.83290661,-0.39023686 11.308271,-0.368711421 12.8391151,1.16321383 C14.3711,2.69628067 14.3901071,5.17304638 12.8764808,6.74111987 L11.0361369,8.58276354 C10.2220667,9.39770408 9.09439228,9.81865665 7.9458061,9.73633907 C6.7972299,9.6540222 5.74102895,9.07656328 5.05133291,8.15386831 Z M8.94866709,5.84613169 C9.24667716,6.24481803 9.16529844,6.80972106 8.7668434,7.10797908 C8.36825537,7.40633663 7.80338836,7.32484813 7.50527888,6.92602879 C7.12879001,6.42235128 6.5522926,6.10716166 5.9254112,6.06223394 C5.2985267,6.017306 4.68305251,6.24706964 4.23858376,6.69201356 L2.40910774,8.52258905 C1.58805292,9.37329022 1.59979591,10.7256092 2.43549725,11.5619007 C3.27004307,12.397036 4.62102702,12.4108377 5.46086866,11.5992928 L6.50993056,10.54949 C6.86187968,10.1972924 7.43259383,10.1972924 7.78454295,10.54949 C8.1363697,10.9015653 8.1363697,11.4723002 7.78453035,11.8243881 L6.72431229,12.8851623 C5.16709339,14.3902369 2.69172897,14.3687114 1.16088486,12.8367862 C-0.37110004,11.3037193 -0.390107114,8.82695362 1.12351916,7.25888013 L2.96386314,5.41723646 C3.77793334,4.60229592 4.90560772,4.18134335 6.0541939,4.26366093 C7.2027701,4.3459778 8.25897105,4.92343672 8.94866709,5.84613169 Z" fill="#000000" fill-rule="nonzero"></path>
    </g>
</svg>