<?xml version="1.0" encoding="UTF-8"?>
<svg width="14px" height="14px" viewBox="0 0 14 14" version="1.1" xmlns="http://www.w3.org/2000/svg" xmlns:xlink="http://www.w3.org/1999/xlink">
    <!-- Generator: Sketch 51.3 (57544) - http://www.bohemiancoding.com/sketch -->
    <title>Ticket</title>
    <desc>Created with Sketch.</desc>
    <defs></defs>
    <g id="Ticket" stroke="none" stroke-width="1" fill="none" fill-rule="evenodd">
        <path d="M13.7436631,4.64158825 L12.8682527,3.76617783 C12.1407799,4.49365178 10.961296,4.49366248 10.233822,3.76617783 C9.50634805,3.03871486 9.50634805,1.85922054 10.233822,1.13174688 L9.35840091,0.256336547 C9.01661893,-0.0854455157 8.4573419,-0.0854455157 8.11557061,0.256336547 L0.256336547,8.11556021 C-0.0854455157,8.4573422 -0.0854455157,9.01664 0.256336547,9.35842258 L1.13173619,10.233833 C1.85922054,9.50635904 3.03870416,9.50635904 3.76616714,10.233833 C4.49365149,10.9613058 4.49364079,12.1407897 3.76616714,12.868253 L4.64158793,13.743674 C4.9833812,14.0854661 5.54265762,14.0854661 5.8844396,13.743674 L13.7436631,5.88446128 C14.0854456,5.54266862 14.0854456,4.98338091 13.7436631,4.64158825 Z M4.02405402,7.18148619 C3.81281364,7.51285472 3.34016914,7.51281198 3.12897152,7.18145413 C3.02252827,7.01445475 3.02248552,6.7938165 3.12884327,6.626753 C3.33997677,6.29513867 3.81300631,6.29508523 4.02418227,6.62673163 C4.13057236,6.79380581 4.13051893,7.01446543 4.02405402,7.18148619 Z M5.22410835,8.38152925 C5.012857,8.71289837 4.5402018,8.71285563 4.32901516,8.38149718 C4.22258231,8.21448711 4.22252886,7.99386015 4.3288976,7.82680734 C4.54002011,7.49517104 5.01306005,7.49513898 5.22422591,7.82677527 C5.33061543,7.99383878 5.33057267,8.2145085 5.22410835,8.38152925 Z M6.42413003,9.58154084 C6.21290064,9.91292006 5.74026682,9.91289869 5.5290689,9.58154084 C5.42262536,9.41454087 5.42257193,9.19390321 5.52891928,9.0268504 C5.74005249,8.6952147 6.21307165,8.69517194 6.42425828,9.02680765 C6.53064839,9.19386046 6.53059496,9.41453018 6.42413003,9.58154084 Z M7.62417369,10.7815952 C7.41294371,11.1129744 6.94028852,11.1129316 6.72910187,10.7815738 C6.62265833,10.6145631 6.62261557,10.3939362 6.72896294,10.2268828 C6.94008545,9.89525773 7.41312539,9.89521499 7.62431263,10.22684 C7.73068077,10.3939148 7.73063801,10.6145845 7.62417369,10.7815952 Z" id="Shape" fill="#000000" fill-rule="nonzero"></path>
    </g>
</svg>