<?xml version="1.0" encoding="UTF-8"?>
<svg width="14px" height="9px" viewBox="0 0 14 9" version="1.1" xmlns="http://www.w3.org/2000/svg" xmlns:xlink="http://www.w3.org/1999/xlink">
    <!-- Generator: Sketch 54.1 (76490) - https://sketchapp.com -->
    <title>noun_View_627784</title>
    <desc>Created with Sketch.</desc>
    <g id="Symbols" stroke="none" stroke-width="1" fill="none" fill-rule="evenodd">
        <g id="04_Centenaire/02_Elements/01_Publication_Infos/Mobile" transform="translate(-287.000000, -56.000000)" fill="#000000" fill-rule="nonzero">
            <g id="noun_View_627784" transform="translate(287.000000, 56.000000)">
                <g id="Group">
                    <g id="Shape">
                        <path d="M7,7.0714286 C5.59427273,7.0714286 4.45454545,5.92071429 4.45454545,4.5 C4.45454545,3.07928571 5.59427273,1.92857143 7,1.92857143 C8.40572727,1.92857143 9.5454545,3.07928571 9.5454545,4.5 C9.5454545,5.92071429 8.40572727,7.0714286 7,7.0714286 L7,7.0714286 Z M7,0 C2.95781818,0 0,4.5 0,4.5 C0,4.5 2.95781818,9 7,9 C11.0421818,9 14,4.5 14,4.5 C14,4.5 11.0421818,0 7,0 Z M7,3.21428571 C6.29745455,3.21428571 5.72727273,3.78964286 5.72727273,4.5 C5.72727273,5.21035714 6.29745455,5.78571429 7,5.78571429 C7.70254545,5.78571429 8.27272727,5.21035714 8.27272727,4.5 C8.27272727,3.78964286 7.70254545,3.21428571 7,3.21428571 Z"></path>
                    </g>
                </g>
            </g>
        </g>
    </g>
</svg>