<?xml version="1.0" encoding="UTF-8"?>
<svg width="8px" height="12px" viewBox="0 0 8 12" version="1.1" xmlns="http://www.w3.org/2000/svg" xmlns:xlink="http://www.w3.org/1999/xlink">
    <!-- Generator: Sketch 52.2 (67145) - http://www.bohemiancoding.com/sketch -->
    <title>walk</title>
    <desc>Created with Sketch.</desc>
    <g id="4️⃣--FFR---Lot-4" stroke="none" stroke-width="1" fill="none" fill-rule="evenodd">
        <g id="T---05_2_HUB_Entreprises---Lounge_XV_France_infos" transform="translate(-50.000000, -1466.000000)" fill="#000" fill-rule="nonzero">
            <g id="Content" transform="translate(16.000000, 656.000000)">
                <g id="Transports" transform="translate(0.000000, 640.000000)">
                    <g id="Cards" transform="translate(0.000000, 44.000000)">
                        <g id="1">
                            <g id="Walk" transform="translate(34.000000, 125.000000)">
                                <path d="M2.14491138,9.13872644 L3.25929323,10.1608283 L2.29624718,12.5457325 C2.18618478,12.8107219 1.91102877,12.9747629 1.62211496,12.9747629 C1.53956815,12.9747629 1.45702135,12.9621444 1.37447454,12.9369073 C1.00301393,12.8107219 0.810404719,12.4321657 0.947982725,12.091465 L2.14491138,9.13872644 Z M0.0674834862,6.52668844 L0.727857915,5.36578267 C0.906709323,5.06293768 1.16810753,4.81056686 1.48453695,4.63390729 C3.01165282,3.80108358 3.20426202,3.81370212 3.39687123,3.82632066 L4.42870628,3.88941337 C4.74513569,3.90203191 4.9652605,3.97774315 6.02461115,5.40363829 C6.06588455,5.45411246 6.12091575,5.49196808 6.20346256,5.50458662 L7.46918021,5.68124619 C7.81312523,5.73172036 8.04700784,6.0219468 7.99197664,6.33741033 C7.93694543,6.65287385 7.62051602,6.86738905 7.27657101,6.81691489 L6.01085335,6.64025531 C5.59811933,6.57716261 5.22665871,6.37526595 4.9927761,6.05980243 C4.9377449,5.98409118 4.8964715,5.92099847 4.8414403,5.85790577 L4.02973006,8.21757294 L5.15786971,9.25229331 C5.32296332,9.4037158 5.46054132,9.60561246 5.54308813,9.80750912 L6.40982957,12.1293207 C6.54740757,12.4700213 6.34104056,12.8485775 5.96957995,12.9621444 C5.88703314,12.9873815 5.81824414,13 5.73569734,13 C5.43302572,13 5.15786971,12.8233404 5.04780731,12.5583511 L4.18106587,10.2365395 C4.16730807,10.2113024 4.15355027,10.1986839 4.13979247,10.1734468 L2.13115358,8.31852127 C1.84223976,8.05353191 1.73217736,7.68759422 1.81472416,7.33427507 L2.25497378,5.54244224 C2.21370038,5.56767932 2.17242698,5.59291641 2.11739578,5.61815349 C1.99357557,5.68124619 1.89727097,5.78219452 1.82848196,5.89576139 L1.16810753,7.05666717 C1.05804513,7.24594528 0.83792032,7.35951215 0.617795511,7.35951215 C0.521490906,7.35951215 0.425186302,7.33427507 0.328881698,7.29641945 C0.0262100844,7.14499696 -0.0838523205,6.80429635 0.0674834862,6.52668844 Z M5.51308301,2.40598399 C5.4300481,3.10211465 4.74110034,3.60470104 3.97427512,3.52854211 C3.20744989,3.45238318 2.65312831,2.82631877 2.73616322,2.13018811 C2.81919813,1.43405745 3.50814589,0.93147106 4.27497111,1.00762999 C5.04179634,1.08378892 5.59611792,1.70985333 5.51308301,2.40598399 Z" id="walk"></path>
                            </g>
                        </g>
                    </g>
                </g>
            </g>
        </g>
    </g>
</svg>
