<?xml version="1.0" encoding="UTF-8"?>
<svg width="14px" height="14px" viewBox="0 0 14 14" version="1.1" xmlns="http://www.w3.org/2000/svg" xmlns:xlink="http://www.w3.org/1999/xlink">
    <!-- Generator: Sketch 51.3 (57544) - http://www.bohemiancoding.com/sketch -->
    <title>Icons/Pictos/14px/Grey/Calendar</title>
    <desc>Created with Sketch.</desc>
    <defs></defs>
    <g id="💎-Symbols" stroke="none" stroke-width="1" fill="none" fill-rule="evenodd">
        <g id="01_CTA/Blanc/AlerteBilletterie" transform="translate(-22.000000, -17.000000)" fill="#7D93A8" fill-rule="nonzero">
            <g id="Group" transform="translate(22.000000, 16.000000)">
                <g id="00_Icons/01_Pictos/14px/Grey/Grey_Alert" transform="translate(0.000000, 1.000000)">
                    <path d="M12.6756757,8.30766412 L12.6,8.30766412 L12.6,5.15345233 C12.5438835,2.2920874 10.0527656,3.1495254e-16 6.99905405,0 C3.94534255,-3.1495254e-16 1.45422459,2.2920874 1.39810811,5.15345233 L1.39810811,8.30766412 L1.32432432,8.30766412 C0.592920196,8.30766412 0,8.8633314 0,9.54878174 L0,10.7118863 C-3.3606751e-16,11.3973366 0.592920196,11.9530039 1.32432432,11.9530039 L4.75054054,11.9530039 C4.78582902,13.0930053 5.78211319,14 6.99905405,14 C8.21599492,14 9.21227909,13.0930053 9.24756757,11.9530039 L12.6756757,11.9530039 C13.4070798,11.9530039 14,11.3973366 14,10.7118863 L14,9.54878174 C14,8.8633314 13.4070798,8.30766412 12.6756757,8.30766412 Z" id="Shape"></path>
                </g>
            </g>
        </g>
    </g>
</svg>