<?xml version="1.0" encoding="UTF-8"?>
<svg width="14px" height="14px" viewBox="0 0 14 14" version="1.1" xmlns="http://www.w3.org/2000/svg" xmlns:xlink="http://www.w3.org/1999/xlink">
    <!-- Generator: Sketch 51.2 (57519) - http://www.bohemiancoding.com/sketch -->
    <title>articles-empty</title>
    <desc>Created with Sketch.</desc>
    <defs></defs>
    <g id="articles-empty" stroke="none" stroke-width="1" fill="none" fill-rule="evenodd">
        <path d="M1,0 L1,14 L13,14 L13,0 L1,0 Z M2.2,1.16666667 L11.8,1.16666667 L11.8,12.8333333 L2.2,12.8333333 L2.2,1.16666667 Z M3.4,2.91666667 L3.4,4.08333333 L10.6,4.08333333 L10.6,2.91666667 L3.4,2.91666667 Z M3.4,5.25 L3.4,6.41666667 L10.6,6.41666667 L10.6,5.25 L3.4,5.25 Z M5.5,7 C4.9796878,7 4.5179686,7.34407567 4.3,7.765625 C4.0820314,8.18717433 4,8.68619792 4,9.26041667 C4,9.58170558 4.1171878,9.9554035 4.1875,10.3177083 C3.9179686,10.3997396 3.6789064,10.5729167 3.41875,10.5729167 L3.41875,11.7395833 C3.821875,11.7395833 4.2320314,11.6780597 4.61875,11.5572917 C4.6796878,11.646159 4.7078128,11.7509764 4.7875,11.8307292 C5.021875,12.0654298 5.3921878,12.25 5.78125,12.25 C6.7328128,12.25 7.3679686,11.6370444 7.76875,11.15625 C7.8507814,11.0582681 7.8882814,11.0058597 7.95625,10.9192708 C7.9726564,10.989909 7.9609378,11.0377604 7.99375,11.1197917 C8.040625,11.2360028 8.1109378,11.3681639 8.25625,11.484375 C8.4015628,11.6005861 8.6195314,11.6666667 8.8,11.6666667 C9.1890628,11.6666667 9.3882814,11.4615888 9.53125,11.3203125 C9.6742186,11.1790367 9.7914064,11.0400389 9.90625,10.9192708 C10.1335936,10.6777347 10.2976564,10.5364583 10.5625,10.5364583 L10.5625,9.36979167 C9.83125,9.36979167 9.3273436,9.79589858 9.025,10.1171875 C9.0132814,10.0465493 9.015625,10.0009764 8.9875,9.91666667 C8.95,9.80501317 8.8820314,9.66145833 8.74375,9.53385417 C8.6054686,9.40625 8.3875,9.33333333 8.2,9.33333333 C7.73125,9.33333333 7.515625,9.60677083 7.3375,9.80729167 C7.159375,10.0078125 6.9976564,10.228841 6.83125,10.4270833 C6.5007814,10.8212889 6.2125,11.0833333 5.78125,11.0833333 C5.7507814,11.0833333 5.7179686,11.0537111 5.6875,11.0286458 C5.7226564,11.0058597 5.7671878,10.9990236 5.8,10.9739583 C6.4796878,10.4772138 7,9.72526042 7,8.82291667 C7,8.37630208 6.9085936,7.95475275 6.6625,7.6015625 C6.4164064,7.24837225 5.96875,7 5.5,7 Z M5.44375,8.16666667 C5.4578128,8.15527358 5.4625,8.16666667 5.5,8.16666667 C5.6265628,8.16666667 5.6148436,8.18033883 5.66875,8.2578125 C5.7226564,8.33528675 5.8,8.53125 5.8,8.82291667 C5.8,9.19433608 5.59375,9.515625 5.29375,9.80729167 C5.2679686,9.61360692 5.2,9.42675767 5.2,9.26041667 C5.2,8.79785142 5.2867186,8.45377633 5.36875,8.29427083 C5.4109378,8.21451808 5.4296878,8.17805975 5.44375,8.16666667 Z" fill="#000000" fill-rule="nonzero"></path>
    </g>
</svg>