<?xml version="1.0" encoding="UTF-8"?>
<svg width="14px" height="14px" viewBox="0 0 14 14" version="1.1" xmlns="http://www.w3.org/2000/svg" xmlns:xlink="http://www.w3.org/1999/xlink">
    <!-- Generator: Sketch 52.1 (67048) - http://www.bohemiancoding.com/sketch -->
    <title>Combined Shape</title>
    <desc>Created with Sketch.</desc>
    <g id="3️⃣--FFR---Lot-3-" stroke="none" stroke-width="1" fill="none" fill-rule="evenodd">
        <g id="04_i_Match_TempsFort" transform="translate(-502.000000, -1842.000000)" fill="#000" fill-rule="nonzero">
            <g id="Group-9" transform="translate(296.000000, 685.000000)">
                <g id="Group-2" transform="translate(0.000000, 512.000000)">
                    <g id="Group-5-Copy-5" transform="translate(0.000000, 624.000000)">
                        <path d="M206.987176,34.0132771 C206.078008,33.1043894 205.806406,31.5649365 206.133449,29.844042 L211.156691,34.8670043 C209.435516,35.194327 207.896343,34.9224448 206.987176,34.0132771 Z M209.242315,24.2423148 C210.430085,23.0539848 211.781656,22.1918576 213.109427,21.653973 L219.34648,27.8913056 C218.808595,29.2190767 217.946188,30.5706481 216.758418,31.7586981 C215.570088,32.9467481 214.218517,33.8088754 212.891026,34.3467599 L206.654253,28.1097074 C207.192138,26.7816562 208.054265,25.4300848 209.242315,24.2423148 Z M219.013277,21.9871758 C219.922445,22.8960635 220.194327,24.4355165 219.866724,26.1564109 L214.844042,21.1334486 C216.564936,20.8064059 218.104109,21.0780082 219.013277,21.9871758 Z" id="Combined-Shape"></path>
                    </g>
                </g>
            </g>
        </g>
    </g>
</svg>
