<?xml version="1.0" encoding="UTF-8"?>
<svg width="12px" height="20px" viewBox="0 0 12 20" version="1.1" xmlns="http://www.w3.org/2000/svg" xmlns:xlink="http://www.w3.org/1999/xlink">
    <!-- Generator: Sketch 52.1 (67048) - http://www.bohemiancoding.com/sketch -->
    <title>Combined Shape</title>
    <desc>Created with Sketch.</desc>
    <g id="3️⃣--FFR---Lot-3-" stroke="none" stroke-width="1" fill="none" fill-rule="evenodd">
        <g id="04_i_Match_TempsFort" transform="translate(-503.000000, -1551.000000)" fill="#002348" fill-rule="nonzero">
            <g id="Group-9" transform="translate(296.000000, 685.000000)">
                <g id="Group-2" transform="translate(0.000000, 512.000000)">
                    <g id="Group-8" transform="translate(125.000000, 336.000000)">
                        <path d="M93,32 C93.5522847,32 94,32.4477153 94,33 L94,37 C94,37.5522847 93.5522847,38 93,38 L91,38 C90.4477153,38 90,37.5522847 90,37 L90,33 C90,32.4477153 90.4477153,32 91,32 L91,30 L85,30 L85,32 C85.5522847,32 86,32.4477153 86,33 L86,37 C86,37.5522847 85.5522847,38 85,38 L83,38 C82.4477153,38 82,37.5522847 82,37 L82,33 C82,32.4477153 82.4477153,32 83,32 L83,19 C83,18.4477153 83.4477153,18 84,18 C84.5522847,18 85,18.4477153 85,19 L85,28 L91,28 L91,19 C91,18.4477153 91.4477153,18 92,18 C92.5522847,18 93,18.4477153 93,19 L93,32 Z" id="Combined-Shape"></path>
                    </g>
                </g>
            </g>
        </g>
    </g>
</svg>