<?xml version="1.0" encoding="UTF-8"?>
<svg width="14px" height="14px" viewBox="0 0 14 14" version="1.1" xmlns="http://www.w3.org/2000/svg" xmlns:xlink="http://www.w3.org/1999/xlink">
    <!-- Generator: Sketch 51.2 (57519) - http://www.bohemiancoding.com/sketch -->
    <title>calendar-empty</title>
    <desc>Created with Sketch.</desc>
    <defs></defs>
    <g id="calendar-empty" stroke="none" stroke-width="1" fill="none" fill-rule="evenodd">
        <path d="M2.49860569,0.598140236 L2.49860569,0 L4.00557724,0 L4.00557724,0.598140236 L9.99442276,0.598140236 L9.99442276,0 L11.5013943,0 L11.5013943,0.598140236 L14,0.598140236 L14,14 L0,14 L0,0.598140236 L2.49860569,0.598140236 Z M1.50697156,2.03719528 L1.50697156,2.99070118 L12.4930284,2.99070118 L12.4930284,2.03719528 L11.5013943,2.03719528 L11.5013943,2.47058824 L9.99442276,2.47058824 L9.99442276,2.03719528 L4.00557724,2.03719528 L4.00557724,2.47058824 L2.49860569,2.47058824 L2.49860569,2.03719528 L1.50697156,2.03719528 Z M1.50697156,4.42975622 L1.50697156,12.560945 L12.4930284,12.560945 L12.4930284,4.42975622 L1.50697156,4.42975622 Z M4.99721138,5.38326213 L6.50418293,5.38150289 L6.50418293,6.82231717 L4.99721138,6.82231717 L4.99721138,5.38326213 Z M7.49581707,5.38326213 L9.00278862,5.38326213 L9.00278862,6.82231717 L7.49581707,6.82231717 L7.49581707,5.38326213 Z M9.99442276,5.38326213 L11.5013943,5.38150289 L11.5013943,6.82231717 L9.99442276,6.82231717 L9.99442276,5.38326213 Z M2.49860569,7.77582307 L4.00557724,7.77582307 L4.00557724,9.21487811 L2.49860569,9.21487811 L2.49860569,7.77582307 Z M4.99721138,7.77582307 L6.50418293,7.77582307 L6.50418293,9.21487811 L4.99721138,9.21487811 L4.99721138,7.77582307 Z M7.49581707,7.77582307 L9.00278862,7.77582307 L9.00278862,9.21487811 L7.49581707,9.21487811 L7.49581707,7.77582307 Z M9.99442276,7.77582307 L11.5013943,7.77582307 L11.5013943,9.21487811 L9.99442276,9.21487811 L9.99442276,7.77582307 Z M2.49860569,10.168384 L4.00557724,10.168384 L4.00557724,11.6074391 L2.49860569,11.6074391 L2.49860569,10.168384 Z M4.99721138,10.168384 L6.50418293,10.168384 L6.50418293,11.6074391 L4.99721138,11.6074391 L4.99721138,10.168384 Z M7.49581707,10.168384 L9.00278862,10.168384 L9.00278862,11.6074391 L7.49581707,11.6074391 L7.49581707,10.168384 Z" fill="#000000" fill-rule="nonzero"></path>
    </g>
</svg>