<?xml version="1.0" encoding="UTF-8"?>
<svg width="14px" height="14px" viewBox="0 0 14 14" version="1.1" xmlns="http://www.w3.org/2000/svg" xmlns:xlink="http://www.w3.org/1999/xlink">
    <!-- Generator: Sketch 51.2 (57519) - http://www.bohemiancoding.com/sketch -->
    <title>calendar</title>
    <desc>Created with Sketch.</desc>
    <defs></defs>
    <g id="calendar" stroke="none" stroke-width="1" fill="none" fill-rule="evenodd">
        <path d="M2.1,2.54545455 C1.71340068,2.54545455 1.4,2.83036425 1.4,3.18181818 L1.4,12.0909091 C1.4,12.442363 1.71340068,12.7272727 2.1,12.7272727 L11.9,12.7272727 C12.2865993,12.7272727 12.6,12.442363 12.6,12.0909091 L12.6,3.18181818 C12.6,2.83036425 12.2865993,2.54545455 11.9,2.54545455 L2.1,2.54545455 Z M2.1,1.27272727 L11.9,1.27272727 C13.059798,1.27272727 14,2.12745639 14,3.18181818 L14,12.0909091 C14,13.1452709 13.059798,14 11.9,14 L2.1,14 C0.940202025,14 1.55431223e-16,13.1452709 0,12.0909091 L0,3.18181818 C-1.55431223e-16,2.12745639 0.940202025,1.27272727 2.1,1.27272727 Z M9.1,0.636363636 C9.1,0.284909705 9.41340068,0 9.8,0 C10.1865993,0 10.5,0.284909705 10.5,0.636363636 L10.5,3.18181818 C10.5,3.53327211 10.1865993,3.81818182 9.8,3.81818182 C9.41340068,3.81818182 9.1,3.53327211 9.1,3.18181818 L9.1,0.636363636 Z M3.5,0.636363636 C3.5,0.284909705 3.81340068,0 4.2,0 C4.58659932,0 4.9,0.284909705 4.9,0.636363636 L4.9,3.18181818 C4.9,3.53327211 4.58659932,3.81818182 4.2,3.81818182 C3.81340068,3.81818182 3.5,3.53327211 3.5,3.18181818 L3.5,0.636363636 Z M0.7,13 C0.313400675,13 0,11.2294897 0,9.04545455 C0,6.8614194 0.313400675,5.09090909 0.7,5.09090909 L13.3,5.09090909 C13.6865993,5.09090909 14,6.8614194 14,9.04545455 C14,11.2294897 13.6865993,13 13.3,13 L0.7,13 Z" fill="#000000" fill-rule="nonzero"></path>
    </g>
</svg>