<?xml version="1.0" encoding="UTF-8"?>
<svg width="14px" height="10px" viewBox="0 0 14 10" version="1.1" xmlns="http://www.w3.org/2000/svg" xmlns:xlink="http://www.w3.org/1999/xlink">
    <!-- Generator: Sketch 51.3 (57544) - http://www.bohemiancoding.com/sketch -->
    <title>Icons/Pictos/14px/Grey/Calendar</title>
    <desc>Created with Sketch.</desc>
    <defs></defs>
    <g id="💎-Symbols" stroke="none" stroke-width="1" fill="none" fill-rule="evenodd">
        <g id="01_CTA/Blanc/Replay" transform="translate(-22.000000, -19.000000)" fill="#000" fill-rule="nonzero">
            <g id="Group" transform="translate(22.000000, 16.000000)">
                <g id="00_Icons/01_Pictos/14px/Red/Red_Video" transform="translate(0.000000, 1.000000)">
                    <path d="M13.3777778,2.8777969 C13.0355556,2.67125645 12.6155556,2.68846816 12.2888889,2.89500861 L10.1422222,4.13425129 L10.1422222,2.74010327 C10.1422222,2.32702238 9.86222222,2 9.47333333,2 L0.668888889,2 C0.28,2.0172117 0,2.34423408 0,2.75731497 L0,11.2598967 C0,11.6729776 0.28,12 0.668888889,12 L9.48888889,12 C9.86222222,12 10.1577778,11.6901893 10.1577778,11.2598967 L10.1577778,9.84853701 L12.2733333,11.0533563 C12.4288889,11.1738382 12.6311111,11.242685 12.8644444,11.242685 C13.0044444,11.242685 13.2222222,11.2254733 13.3777778,11.1049914 C13.7666667,10.8984509 14,10.4337349 14,9.95180723 L14,4.03098107 C14,3.53184165 13.7511111,3.08433735 13.3777778,2.8777969 Z" id="Shape"></path>
                </g>
            </g>
        </g>
    </g>
</svg>
