<?xml version="1.0" encoding="UTF-8"?>
<svg width="14px" height="14px" viewBox="0 0 14 14" version="1.1" xmlns="http://www.w3.org/2000/svg" xmlns:xlink="http://www.w3.org/1999/xlink">
    <!-- Generator: Sketch 52.2 (67145) - http://www.bohemiancoding.com/sketch -->
    <title>parking</title>
    <desc>Created with Sketch.</desc>
    <g id="parking" stroke="none" stroke-width="1" fill="none" fill-rule="evenodd">
        <path d="M12.3822222,1.7575 C12.2266667,1.315 11.7911111,1 11.2777778,1 L2.72222222,1 C2.20888889,1 1.78111111,1.315 1.61777778,1.7575 L0,6.25 L0,12.25 C0,12.6625 0.35,13 0.777777778,13 L1.55555556,13 C1.98333333,13 2.33333333,12.6625 2.33333333,12.25 L2.33333333,11.5 L11.6666667,11.5 L11.6666667,12.25 C11.6666667,12.6625 12.0166667,13 12.4444444,13 L13.2222222,13 C13.65,13 14,12.6625 14,12.25 L14,6.25 L12.3822222,1.7575 Z M2.72222222,9.25 C2.07666667,9.25 1.55555556,8.7475 1.55555556,8.125 C1.55555556,7.5025 2.07666667,7 2.72222222,7 C3.36777778,7 3.88888889,7.5025 3.88888889,8.125 C3.88888889,8.7475 3.36777778,9.25 2.72222222,9.25 Z M11.2777778,9.25 C10.6322222,9.25 10.1111111,8.7475 10.1111111,8.125 C10.1111111,7.5025 10.6322222,7 11.2777778,7 C11.9233333,7 12.4444444,7.5025 12.4444444,8.125 C12.4444444,8.7475 11.9233333,9.25 11.2777778,9.25 Z M1.55555556,5.5 L2.72222222,2.125 L11.2777778,2.125 L12.4444444,5.5 L1.55555556,5.5 Z" id="Shape" fill="#000000" fill-rule="nonzero"></path>
    </g>
</svg>