<?xml version="1.0" encoding="UTF-8"?>
<svg width="14px" height="14px" viewBox="0 0 14 14" version="1.1" xmlns="http://www.w3.org/2000/svg" xmlns:xlink="http://www.w3.org/1999/xlink">
    <!-- Generator: Sketch 52.2 (67145) - http://www.bohemiancoding.com/sketch -->
    <title>concours</title>
    <desc>Created with Sketch.</desc>
    <g id="concours" stroke="none" stroke-width="1" fill="none" fill-rule="evenodd">
        <path d="M5.8209179,8.99677574 L5.39874957,12.2926549 L7.21059614,11.1653918 C7.38872998,11.0545636 7.61127002,11.0545636 7.78940386,11.1653918 L9.60143347,12.2927688 L9.17968146,8.99652558 C8.66068674,9.21318873 8.09377343,9.33243846 7.5,9.33243846 C6.90645514,9.33243846 6.33974972,9.21328052 5.8209179,8.99677574 Z M4.76596708,8.3727671 C3.69234443,7.51996738 3,6.17693267 3,4.66621923 C3,2.08913751 5.01471863,0 7.5,0 C9.98528137,0 12,2.08913751 12,4.66621923 C12,6.1766357 11.3079277,7.51943936 10.234666,8.37226413 L10.8701136,13.338666 C10.9320646,13.8228494 10.4269991,14.1668298 10.0230961,13.9155365 L7.5,12.3457606 L4.97690386,13.9155365 C4.57296883,14.1668498 4.06787427,13.8227959 4.12989696,13.3385832 L4.76596708,8.3727671 Z" id="Combined-Shape" fill="#000000" fill-rule="nonzero"></path>
    </g>
</svg>