<?xml version="1.0" encoding="UTF-8"?>
<svg width="14px" height="14px" viewBox="0 0 14 14" version="1.1" xmlns="http://www.w3.org/2000/svg" xmlns:xlink="http://www.w3.org/1999/xlink">
    <!-- Generator: Sketch 51.2 (57519) - http://www.bohemiancoding.com/sketch -->
    <title>delete</title>
    <desc>Created with Sketch.</desc>
    <defs></defs>
    <g id="delete" stroke="none" stroke-width="1" fill="none" fill-rule="evenodd">
        <path d="M7.92807765,7 L9.43278883,5.49528883 C9.68907039,5.23900726 9.68907039,4.82349274 9.43278883,4.56721117 C9.17650726,4.31092961 8.76099274,4.31092961 8.50471117,4.56721117 L7,6.07192235 L5.49528883,4.56721117 C5.23900726,4.31092961 4.82349274,4.31092961 4.56721117,4.56721117 C4.31092961,4.82349274 4.31092961,5.23900726 4.56721117,5.49528883 L6.07192235,7 L4.56721117,8.50471117 C4.31092961,8.76099274 4.31092961,9.17650726 4.56721117,9.43278883 C4.82349274,9.68907039 5.23900726,9.68907039 5.49528883,9.43278883 L7,7.92807765 L8.50471117,9.43278883 C8.76099274,9.68907039 9.17650726,9.68907039 9.43278883,9.43278883 C9.68907039,9.17650726 9.68907039,8.76099274 9.43278883,8.50471117 L7.92807765,7 Z M7,14 C3.13400675,14 0,10.8659932 0,7 C0,3.13400675 3.13400675,0 7,0 C10.8659932,0 14,3.13400675 14,7 C14,10.8659932 10.8659932,14 7,14 Z" fill="#000000" fill-rule="nonzero"></path>
    </g>
</svg>