<?xml version="1.0" encoding="UTF-8"?>
<svg width="14px" height="14px" viewBox="0 0 14 14" version="1.1" xmlns="http://www.w3.org/2000/svg" xmlns:xlink="http://www.w3.org/1999/xlink">
    <!-- Generator: Sketch 52.2 (67145) - http://www.bohemiancoding.com/sketch -->
    <title>cadeau</title>
    <desc>Created with Sketch.</desc>
    <g id="cadeau" stroke="none" stroke-width="1" fill="none" fill-rule="evenodd">
        <path d="M11.8765719,3.18181818 L13.3636364,3.18181818 C13.7150903,3.18181818 14,3.46672789 14,3.81818182 L14,7 C14,7.35145393 13.7150903,7.63636364 13.3636364,7.63636364 L12.7272727,7.63636364 L12.7272727,13.3636364 C12.7272727,13.7150903 12.442363,14 12.0909091,14 L1.90909091,14 C1.55763698,14 1.27272727,13.7150903 1.27272727,13.3636364 L1.27272727,7.63636364 L0.636363636,7.63636364 C0.284909705,7.63636364 0,7.35145393 0,7 L0,3.81818182 C0,3.46672789 0.284909705,3.18181818 0.636363636,3.18181818 L2.1234281,3.18181818 C1.98599261,2.89250965 1.90909091,2.56887187 1.90909091,2.22727273 C1.90909091,0.997183966 2.90627488,0 4.13636364,0 C5.38418089,-2.82602224e-16 6.31363036,0.743559575 6.96100103,1.92059716 C6.97417175,1.94454392 6.98717089,1.9685771 7,1.99269124 C7.01282911,1.9685771 7.02582825,1.94454392 7.03899897,1.92059716 C7.68636964,0.743559575 8.61581911,-2.82602224e-16 9.86363636,0 C11.0937251,0 12.0909091,0.997183966 12.0909091,2.22727273 C12.0909091,2.56887187 12.0140074,2.89250965 11.8765719,3.18181818 Z M7.63636364,12.7272727 L11.4545455,12.7272727 L11.4545455,7.63636364 L7.63636364,7.63636364 L7.63636364,12.7272727 Z M6.36363636,12.7272727 L6.36363636,7.63636364 L2.54545455,7.63636364 L2.54545455,12.7272727 L6.36363636,12.7272727 Z M5.84581715,2.5339483 C5.39943782,1.72234952 4.83741002,1.27272727 4.13636364,1.27272727 C3.60918274,1.27272727 3.18181818,1.70009183 3.18181818,2.22727273 C3.18181818,2.75445362 3.60918274,3.18181818 4.13636364,3.18181818 L6.14361811,3.18181818 C6.05855287,2.95904219 5.95937919,2.74042474 5.84581715,2.5339483 Z M9.86363636,3.18181818 C10.3908173,3.18181818 10.8181818,2.75445362 10.8181818,2.22727273 C10.8181818,1.70009183 10.3908173,1.27272727 9.86363636,1.27272727 C9.16258998,1.27272727 8.60056218,1.72234952 8.15418285,2.5339483 C8.04062081,2.74042474 7.94144713,2.95904219 7.8563831,3.18181818 L9.86363636,3.18181818 Z" id="Combined-Shape" fill="#000000" fill-rule="nonzero"></path>
    </g>
</svg>