<?xml version="1.0" encoding="UTF-8"?>
<svg width="14px" height="14px" viewBox="0 0 14 14" version="1.1" xmlns="http://www.w3.org/2000/svg" xmlns:xlink="http://www.w3.org/1999/xlink">
    <!-- Generator: Sketch 51.2 (57519) - http://www.bohemiancoding.com/sketch -->
    <title>info</title>
    <desc>Created with Sketch.</desc>
    <defs></defs>
    <g id="info" stroke="none" stroke-width="1" fill="none" fill-rule="evenodd">
        <path d="M7,14 C3.13400675,14 0,10.8659932 0,7 C0,3.13400675 3.13400675,0 7,0 C10.8659932,0 14,3.13400675 14,7 C14,10.8659932 10.8659932,14 7,14 Z M7.63636364,9.54545455 L7.63636364,7 C7.63636364,6.64854607 7.35145393,6.36363636 7,6.36363636 C6.64854607,6.36363636 6.36363636,6.64854607 6.36363636,7 L6.36363636,9.54545455 C6.36363636,9.89690848 6.64854607,10.1818182 7,10.1818182 C7.35145393,10.1818182 7.63636364,9.89690848 7.63636364,9.54545455 Z M7,5.72727273 C7.35145393,5.72727273 7.63636364,5.44236302 7.63636364,5.09090909 C7.63636364,4.73945516 7.35145393,4.45454545 7,4.45454545 C6.64854607,4.45454545 6.36363636,4.73945516 6.36363636,5.09090909 C6.36363636,5.44236302 6.64854607,5.72727273 7,5.72727273 Z" fill="#000000" fill-rule="nonzero"></path>
    </g>
</svg>