<?xml version="1.0" encoding="UTF-8"?>
<svg width="14px" height="14px" viewBox="0 0 14 14" version="1.1" xmlns="http://www.w3.org/2000/svg" xmlns:xlink="http://www.w3.org/1999/xlink">
    <!-- Generator: Sketch 51.2 (57519) - http://www.bohemiancoding.com/sketch -->
    <title>list</title>
    <desc>Created with Sketch.</desc>
    <defs></defs>
    <g id="list" stroke="none" stroke-width="1" fill="none" fill-rule="evenodd">
        <path d="M3.73333333,4 C3.32832452,4 3,3.55228475 3,3 C3,2.44771525 3.32832452,2 3.73333333,2 L13.2666667,2 C13.6716755,2 14,2.44771525 14,3 C14,3.55228475 13.6716755,4 13.2666667,4 L3.73333333,4 Z M1,4 C0.44771525,4 0,3.55228475 0,3 C0,2.44771525 0.44771525,2 1,2 C1.55228475,2 2,2.44771525 2,3 C2,3.55228475 1.55228475,4 1,4 Z M1,8 C0.44771525,8 0,7.55228475 0,7 C0,6.44771525 0.44771525,6 1,6 C1.55228475,6 2,6.44771525 2,7 C2,7.55228475 1.55228475,8 1,8 Z M1,12 C0.44771525,12 0,11.5522847 0,11 C0,10.4477153 0.44771525,10 1,10 C1.55228475,10 2,10.4477153 2,11 C2,11.5522847 1.55228475,12 1,12 Z M3.73333333,8 C3.32832452,8 3,7.55228475 3,7 C3,6.44771525 3.32832452,6 3.73333333,6 L13.2666667,6 C13.6716755,6 14,6.44771525 14,7 C14,7.55228475 13.6716755,8 13.2666667,8 L3.73333333,8 Z M3.73333333,12 C3.32832452,12 3,11.5522847 3,11 C3,10.4477153 3.32832452,10 3.73333333,10 L13.2666667,10 C13.6716755,10 14,10.4477153 14,11 C14,11.5522847 13.6716755,12 13.2666667,12 L3.73333333,12 Z" fill="#000000" fill-rule="nonzero"></path>
    </g>
</svg>