<svg xmlns="http://www.w3.org/2000/svg" width="12" height="10" viewBox="0 0 12 10">
  <path fill="#000" d="M1.88576475,1.72413793 C1.79343853,1.72413793 1.71433828,1.80369375 1.71433828,1.89655172 L1.71433828,8.10344828 C1.71433828,8.19630625 1.79343853,8.27586207 1.88576475,8.27586207 L10.1142352,8.27586207 C10.2065615,8.27586207 10.2856617,8.19630625 10.2856617,8.10344828 L10.2856617,1.89655172 C10.2856617,1.80369375 10.2065615,1.72413793 10.1142352,1.72413793 L1.88576475,1.72413793 Z M1.88576475,0 L10.1142352,0 C11.1533237,0 11.9999264,0.851478664 11.9999264,1.89655172 L11.9999264,8.10344828 C11.9999264,9.14852134 11.1533237,10 10.1142352,10 L1.88576475,10 C0.846676282,10 7.35953129e-05,9.14852134 7.35953129e-05,8.10344828 L7.35953129e-05,1.89655172 C7.35953129e-05,0.851478664 0.846676282,0 1.88576475,0 Z M6,5.4649521 L10.6512609,2.19031731 C11.0390699,1.91728756 11.573518,1.01214514 11.8449842,1.40218763 C12.1164505,1.79223013 12.0221361,2.32975639 11.6343272,2.60278614 L6.49153312,6.22347579 C6.19640518,6.4312552 5.80359482,6.4312552 5.50846688,6.22347579 L0.365672816,2.60278614 C-0.02213611,2.32975639 -0.116450485,1.79223013 0.155015763,1.40218763 C0.426482011,1.01214514 0.960930136,1.91728756 1.34873906,2.19031731 L6,5.4649521 Z"/>
</svg>
