<?xml version="1.0" encoding="UTF-8"?>
<svg width="14px" height="14px" viewBox="0 0 14 14" version="1.1" xmlns="http://www.w3.org/2000/svg" xmlns:xlink="http://www.w3.org/1999/xlink">
    <!-- Generator: Sketch 51.2 (57519) - http://www.bohemiancoding.com/sketch -->
    <title>mail</title>
    <desc>Created with Sketch.</desc>
    <defs></defs>
    <g id="mail" stroke="none" stroke-width="1" fill="none" fill-rule="evenodd">
        <path d="M7.27879677,7.47512195 C7.11662488,7.60748539 6.88337512,7.60748539 6.72120323,7.47512195 L1.60161409,3.29268293 C1.855607,3.10269932 2.1645338,3 2.48202494,3 L11.5150404,3 C11.8325315,3 12.1414583,3.10269932 12.3954512,3.29268293 L7.27879677,7.47512195 Z M7.83785767,8.15414634 L12.9178283,4.00097561 C12.9719053,4.1552761 12.9996803,4.31752169 13,4.48097561 L13,10.5219512 C12.9991911,11.3379206 12.3361396,11.9991933 11.5179751,12 L2.48202494,12 C1.66386045,11.9991933 1.00080886,11.3379206 1,10.5219512 L1,4.48097561 C1.00031974,4.31752169 1.02809472,4.1552761 1.08217168,4.00097561 L6.16360968,8.15414634 C6.65039069,8.55203568 7.35107666,8.55203568 7.83785767,8.15414634 Z" id="Combined-Shape" fill="#000000" fill-rule="nonzero"></path>
    </g>
</svg>