<svg xmlns="http://www.w3.org/2000/svg" width="14" height="13" viewBox="0 0 14 13">
  <path fill="#000000" d="M0.550775784,1.93301193 L2.21233425,0.313759484 L2.24891931,0.284923605 C2.51067074,0.097693792 2.80108017,0 3.09567293,0 C3.39026624,0 3.68067571,0.097693803 3.90920734,0.269497312 L3.962402,0.298333191 L6.10504172,2.35003017 L6.15487055,2.39630905 C6.63642785,2.86039083 6.63312721,3.58915821 6.15487055,4.03334246 L5.13224482,4.98311335 C5.46768034,5.68080088 5.90047986,6.32246313 6.56881337,6.91503534 C7.25113157,7.52021124 7.96405381,7.94610141 8.67796518,8.26955423 L9.70326846,7.31729655 C10.1730827,6.88095323 11.0001316,6.88095323 11.4851006,7.33688188 L13.6458048,9.35356723 C14.1180651,9.79218235 14.1180651,10.5519855 13.6458048,10.9906006 L11.963858,12.5524231 C11.43726,12.9722185 10.7088835,13.1102765 10.0717092,12.9086946 L10.0284204,12.9040053 C7.82859447,12.1051208 5.81628102,11.0211387 3.97295294,9.3091347 C2.08964687,7.56000085 0.782405353,5.49384884 0.104368596,3.68980498 C-0.132361374,3.05634274 0.0408222937,2.383162 0.550775784,1.93301193 Z M5.28446877,3.18429185 L3.16432408,1.16849906 C3.137816,1.14798251 3.11444763,1.13843299 3.09567293,1.13843299 C3.07689841,1.13843299 3.05353039,1.14798241 3.03283095,1.16351983 L1.42113164,2.69125496 L1.38349577,2.72590675 C1.22897731,2.84891553 1.16772018,3.10704111 1.24116845,3.28901428 C1.85814323,4.93718363 3.09184469,6.89441761 4.82610174,8.50512112 C6.51523248,10.0739133 8.35554295,11.0636384 10.4271692,11.8200794 C10.7153508,11.9098954 10.9471802,11.8711639 11.1649142,11.6983638 L12.792656,10.1865871 C12.9285079,10.0604136 12.8370914,10.1433877 12.8370914,10.1720839 C12.8370914,10.2007802 12.9285079,10.2837543 12.792656,10.1575808 L10.616797,8.13673643 C10.5846164,8.10684847 10.568926,8.09376288 10.5866071,8.09376288 C10.6042883,8.09376288 10.5885979,8.10684847 10.5564173,8.13673643 L8.97850429,9.60223427 L8.89552434,9.61686131 L8.56484381,9.4786379 C8.52957031,9.46475791 8.46425254,9.43759772 8.37317255,9.39740185 C8.22183401,9.33061237 8.05331823,9.2512822 7.87190407,9.1596505 C7.35363971,8.89787686 6.83536189,8.58982434 6.35125617,8.23725117 C6.1774336,8.11065657 6.01084421,7.98020629 5.85425557,7.84743608 L5.73492569,7.75230687 C5.48701258,7.53286045 5.25352888,7.29026489 5.03428206,7.02839809 C4.67600055,6.60046929 4.37212769,6.1423036 4.12138862,5.68410909 C3.97077332,5.40887833 3.87113458,5.19431172 3.82078168,5.06907764 L3.70451441,4.76055178 L3.72575986,4.6776497 L3.97295294,4.46343233 L5.30172175,3.22932888 C5.30721125,3.22423047 5.30146025,3.20921813 5.28446877,3.18429185 Z"/>
</svg>
