<?xml version="1.0" encoding="UTF-8"?>
<svg width="14px" height="14px" viewBox="0 0 14 14" version="1.1" xmlns="http://www.w3.org/2000/svg" xmlns:xlink="http://www.w3.org/1999/xlink">
    <!-- Generator: Sketch 52.2 (67145) - http://www.bohemiancoding.com/sketch -->
    <title>place</title>
    <desc>Created with Sketch.</desc>
    <g id="place" stroke="none" stroke-width="1" fill="none" fill-rule="evenodd">
        <path d="M9.61297634,10.9063723 C9.10350105,11.4441518 8.55912651,11.9340889 8.01458839,12.3677026 C7.82369928,12.5197069 7.64608684,12.6540547 7.48610465,12.7695974 C7.38861201,12.8400088 7.31757269,12.8892101 7.2773501,12.9160251 C7.10940039,13.0279916 6.89059961,13.0279916 6.7226499,12.9160251 C6.68242731,12.8892101 6.61138799,12.8400088 6.51389535,12.7695974 C6.35391316,12.6540547 6.17630072,12.5197069 5.98541161,12.3677026 C5.44087349,11.9340889 4.89649895,11.4441518 4.38702366,10.9063723 C2.90120079,9.33800372 2,7.68580227 2,5.99999995 C2.00000004,3.23857622 4.23857628,1 7,1 C9.76142372,1 12,3.23857622 12,5.99999995 C12,7.68580227 11.0987992,9.33800372 9.61297634,10.9063723 Z M7,8 C8.1045695,8 9,7.1045695 9,6 C9,4.8954305 8.1045695,4 7,4 C5.8954305,4 5,4.8954305 5,6 C5,7.1045695 5.8954305,8 7,8 Z" id="Combined-Shape" fill="#000000" fill-rule="nonzero"></path>
    </g>
</svg>