<svg xmlns="http://www.w3.org/2000/svg" xmlns:xlink="http://www.w3.org/1999/xlink" width="24" height="24" viewBox="0 0 24 24">
  <defs>
    <path id="profile-a" d="M12,0 C18.627417,0 24,5.372583 24,12 L23.9953875,12.3359705 C23.9924616,12.4424085 23.9881496,12.5485002 23.9824691,12.6542284 L23.9910916,12.4666939 C23.9865852,12.5845339 23.9803796,12.7019383 23.9724986,12.8188836 L23.9824691,12.6542284 C23.9759009,12.7764789 23.9675029,12.8982432 23.9573021,13.0194945 L23.9724986,12.8188836 C23.9646842,12.9348396 23.9552227,13.0503441 23.9441371,13.1653739 L23.9573021,13.0194945 C23.9478684,13.1316271 23.9368928,13.2433209 23.9243967,13.3545547 L23.9243841,13.3546662 C23.9036748,13.5390088 23.8787716,13.7221979 23.849784,13.9040249 C23.8200424,14.0906377 23.7858842,14.2763642 23.7475039,14.4605417 C23.7134433,14.6239768 23.6761042,14.78601 23.6355216,14.9467524 C23.5740201,15.190342 23.505107,15.4308528 23.4290087,15.6681464 L23.4601128,15.5696896 C23.4315041,15.6616335 23.4018195,15.7531032 23.3710735,15.844084 L23.4290087,15.6681464 C23.3931867,15.7798482 23.3557726,15.8908372 23.3167931,16.0010864 L23.3710735,15.844084 C23.3401956,15.9354554 23.3082472,16.0263337 23.2752434,16.116704 L23.3167931,16.0010864 C23.2812897,16.101504 23.2444875,16.201308 23.2064069,16.3004782 L23.2064484,16.3003702 C23.0772257,16.6368938 22.9333319,16.9660162 22.7755131,17.2870575 L22.808245,17.2199442 C22.7611561,17.3172657 22.7127914,17.4138548 22.6631727,17.5096897 L22.7755131,17.2870575 C22.7302124,17.3792101 22.6837644,17.4706969 22.6361876,17.5614992 L22.6361163,17.5616353 C22.5265079,17.7708278 22.4108298,17.9765188 22.2893815,18.178344 L22.2891457,18.1787358 C22.2125125,18.3060864 22.1333319,18.4322802 22.0518977,18.5568674 L22.1318814,18.4328428 C22.0740169,18.5237906 22.0149616,18.6139067 21.9547372,18.703169 L22.0518977,18.5568674 C21.9992299,18.6374445 21.9456194,18.7173496 21.8910819,18.796567 L21.8906605,18.7971791 C21.6798952,19.103322 21.454808,19.3997653 21.2167294,19.6849877 L21.3187286,19.5611254 C21.2480649,19.6481083 21.1762078,19.7340827 21.1031822,19.8190235 L21.1034083,19.8187605 C18.902461,22.3788273 15.6405531,24 12,24 C8.38612811,24 5.14537164,22.402503 2.94537501,19.8751535 L2.94618534,19.8739157 C2.55817524,19.4286293 2.20254649,18.9543893 1.88294935,18.4548653 L1.88221396,18.4549437 C1.68723334,18.1489651 1.50502967,17.833583 1.33717663,17.5095617 L1.36388369,17.5616353 C1.3162443,17.4707162 1.26973651,17.3791109 1.22437902,17.2868381 L1.33717663,17.5095617 C1.28786553,17.4143722 1.23979294,17.3184372 1.19298012,17.2217779 L1.192723,17.2219444 C1.01928571,16.8631329 0.862934673,16.4945175 0.725012698,16.117023 L0.793169893,16.2993759 C0.755218209,16.2005122 0.718537094,16.1010188 0.683146541,16.0009157 L0.725012698,16.117023 C0.691968636,16.026581 0.659982422,15.9356292 0.629068985,15.8441828 L0.683146541,16.0009157 C0.644175046,15.8906839 0.606768493,15.7797126 0.570953578,15.6680287 L0.629068985,15.8441828 C0.598321211,15.7532265 0.568634749,15.6617808 0.54002429,15.5698605 L0.539887192,15.5696896 C0.476103756,15.3644952 0.417554095,15.1567609 0.36453915,14.9468224 C0.32389578,14.78601 0.286556654,14.6239768 0.252534658,14.4607267 C0.214129441,14.2763433 0.179968067,14.0906217 0.150135324,13.9034558 C0.111343841,13.6601961 0.079816432,13.413918 0.0558677416,13.1654244 L0.0756187093,13.3546618 C0.0631214753,13.2434353 0.0521448584,13.1317485 0.0427100852,13.0196228 L0.0558677416,13.1654244 C0.0447642946,13.0502141 0.0352899481,12.9345276 0.0274680166,12.8183881 L0.0427100852,13.0196228 C0.0325232516,12.8985593 0.0241338639,12.7769841 0.0175686403,12.6549241 L0.0274680166,12.8183881 C0.0196037734,12.7016205 0.0134098704,12.584395 0.00891000235,12.4667354 L0.0175686403,12.6549241 C0.0118595675,12.5487815 0.00752991297,12.4422723 0.00459724603,12.3354141 L0.00461248533,12.3359705 L0,12 L0,12 C0,5.47454326 5.20854437,0.165607248 11.6950252,0.00379985776 L12,0 L12,0 Z M12,2.25 C6.61522369,2.25 2.25,6.61522369 2.25,12 C2.25,14.412202 3.12598871,16.6198058 4.57720532,18.3220508 C6.61928916,16.7107303 9.19744929,15.75 12,15.75 C14.8026515,15.75 17.3808962,16.7107994 19.423323,18.320987 C20.8740113,16.6198058 21.75,14.412202 21.75,12 C21.75,6.61522369 17.3847763,2.25 12,2.25 Z M12,6 C14.0710678,6 15.75,7.67893219 15.75,9.75 C15.75,11.8210678 14.0710678,13.5 12,13.5 C9.92893219,13.5 8.25,11.8210678 8.25,9.75 C8.25,7.67893219 9.92893219,6 12,6 Z"/>
  </defs>
  <use fill="#FFF" fill-rule="evenodd" xlink:href="#profile-a"/>
</svg>
