<?xml version="1.0" encoding="UTF-8"?>
<svg width="14px" height="14px" viewBox="0 0 14 14" version="1.1" xmlns="http://www.w3.org/2000/svg" xmlns:xlink="http://www.w3.org/1999/xlink">
    <!-- Generator: Sketch 51.2 (57519) - http://www.bohemiancoding.com/sketch -->
    <title>search</title>
    <desc>Created with Sketch.</desc>
    <defs></defs>
    <g id="search" stroke="none" stroke-width="1" fill="none" fill-rule="evenodd">
        <path d="M5.98318054,9.61298547 C8.12133424,9.61298547 9.8546503,7.9221754 9.8546503,5.83645547 C9.8546503,3.75073554 8.12133424,2.05992546 5.98318054,2.05992546 C3.84502683,2.05992546 2.11171078,3.75073554 2.11171078,5.83645547 C2.11171078,7.9221754 3.84502683,9.61298547 5.98318054,9.61298547 Z M10.7516712,9.36221653 L13.9816911,12.5922364 L12.5251039,14.0488237 L9.22136197,10.7450818 C8.28798631,11.332204 7.17637185,11.6729109 5.98318054,11.6729109 C2.67876117,11.6729109 0,9.05984081 0,5.83645547 C0,2.61307012 2.67876117,0 5.98318054,0 C9.2875999,0 11.9663611,2.61307012 11.9663611,5.83645547 C11.9663611,7.16111196 11.5139679,8.3826975 10.7516712,9.36221653 Z" fill="#000000" fill-rule="nonzero"></path>
    </g>
</svg>