<?xml version="1.0" encoding="UTF-8"?>
<svg width="14px" height="14px" viewBox="0 0 14 14" version="1.1" xmlns="http://www.w3.org/2000/svg" xmlns:xlink="http://www.w3.org/1999/xlink">
    <!-- Generator: Sketch 51.2 (57519) - http://www.bohemiancoding.com/sketch -->
    <title>Shield</title>
    <desc>Created with Sketch.</desc>
    <defs></defs>
    <g id="Shield" stroke="none" stroke-width="1" fill="none" fill-rule="evenodd">
        <path d="M3.89629121,9.65317398 C4.22977508,10.063043 4.63538037,10.4648432 5.10480519,10.8560577 C5.63006693,11.2938062 6.19636487,11.6848485 6.76251462,12.0218658 C6.89126813,12.0985101 7.00845583,12.1657109 7.11180124,12.2231543 C7.21514666,12.1657109 7.33233435,12.0985101 7.46108787,12.0218658 C8.02723761,11.6848485 8.59353556,11.2938062 9.11879729,10.8560577 C10.5581667,9.65649999 11.3975155,8.3574176 11.3975155,7.03136519 L11.3975155,3.65821094 L3.89629121,9.65317398 Z M3.04213299,8.20439042 L10.1985553,2.48499243 L7.11180124,1.75 L2.82608696,2.77047895 L2.82608696,7.03136519 C2.82608696,7.42538935 2.90019525,7.81703226 3.04213299,8.20439042 Z M7.38332594,13.8174512 L7,14 L6.61667406,13.8174512 C6.43292097,13.7299436 6.12824544,13.5693042 5.74214377,13.3394659 C5.10293637,12.9589589 4.46387717,12.5176731 3.86413891,12.0178566 C2.08922258,10.538657 1,8.85283847 1,6.96438219 L1,1.42867053 L7,0 L13,1.42867053 L13,6.96438219 C13,8.85283847 11.9107774,10.538657 10.1358611,12.0178566 C9.53612283,12.5176731 8.89706363,12.9589589 8.25785623,13.3394659 C7.87175456,13.5693042 7.56707903,13.7299436 7.38332594,13.8174512 Z" id="Club_mobile" fill="#000000"></path>
    </g>
</svg>