<?xml version="1.0" encoding="UTF-8"?>
<svg width="14px" height="14px" viewBox="0 0 14 14" version="1.1" xmlns="http://www.w3.org/2000/svg" xmlns:xlink="http://www.w3.org/1999/xlink">
    <!-- Generator: Sketch 51.2 (57519) - http://www.bohemiancoding.com/sketch -->
    <title>twitter</title>
    <desc>Created with Sketch.</desc>
    <defs></defs>
    <g id="twitter" stroke="none" stroke-width="1" fill="none" fill-rule="evenodd">
        <path d="M14,3.18374382 C13.4853338,3.3848229 12.9314496,3.52045761 12.3502832,3.58115602 C12.9436697,3.26892142 13.3986562,2.77434181 13.6132188,2.18434331 C13.0581978,2.47384723 12.4437813,2.68391867 11.7892942,2.79732228 C11.265534,2.30673927 10.5189696,2 9.69283235,2 C8.10677385,2 6.82081887,3.13028925 6.82081887,4.52460409 C6.82081887,4.72218614 6.84611169,4.91477244 6.89527637,5.09986511 C4.50808924,4.99445471 2.39144997,3.98955887 0.974768082,2.46210721 C0.727523699,2.83479043 0.585997605,3.26842184 0.585997605,3.7315282 C0.585997605,4.60728381 1.09299068,5.38012689 1.8637111,5.83274217 C1.39309421,5.81950342 0.950043643,5.70585003 0.562694111,5.51676075 C0.562409922,5.52725184 0.562409922,5.53799271 0.562409922,5.54873358 C0.562409922,6.77169406 1.55252421,7.79182695 2.86661389,8.02412949 C2.62562166,8.08158066 2.37184094,8.11255433 2.10981873,8.11255433 C1.92452754,8.11255433 1.74463593,8.0968177 1.56929135,8.06709297 C1.93504253,9.06999051 2.99563567,9.8001199 4.25231918,9.8203527 C3.26930962,10.4975271 2.03109839,10.901184 0.685179547,10.901184 C0.453565556,10.901184 0.224793456,10.8891942 0,10.8657141 C1.27146134,11.582355 2.78107302,12 4.40293933,12 C9.686296,12 12.5750766,8.15326972 12.5750766,4.81710546 C12.5750766,4.70769846 12.5725189,4.59854124 12.5671193,4.49013339 C13.1281083,4.1349353 13.6152082,3.69006345 14,3.18374382 Z" fill="#000000" fill-rule="nonzero"></path>
    </g>
</svg>