<svg xmlns="http://www.w3.org/2000/svg" width="15" height="14" viewBox="0 0 15 14">
  <path fill="#000" d="M14.768885,7.81971111 C14.768885,11.5861778 11.6921517,14.6394222 7.89612949,14.6394222 C6.6910406,14.6394222 5.55890727,14.3314222 4.57392949,13.7908667 L0.768885048,15 L2.0094406,11.3410222 C1.3836406,10.3134222 1.02321838,9.10817778 1.02321838,7.81971111 C1.02321838,4.05324444 4.10026283,1 7.89612949,1 C11.6924628,1 14.768885,4.05324444 14.768885,7.81971111 Z M7.89612949,2.08608889 C4.70972949,2.08608889 2.11786283,4.6582 2.11786283,7.81971111 C2.11786283,9.07426667 2.52681838,10.2361111 3.21857394,11.1812667 L2.4966406,13.3106667 L4.71719616,12.6049111 C5.62952949,13.2039556 6.72246283,13.5533333 7.89628505,13.5533333 C11.0822184,13.5533333 13.6745517,10.9815333 13.6745517,7.82002222 C13.6745517,4.65851111 11.0823739,2.08608889 7.89612949,2.08608889 Z M11.3667295,9.39035556 C11.3242628,9.32082222 11.2121073,9.27882222 11.0437962,9.19528889 C10.8751739,9.11175556 10.046685,8.70715556 9.89268505,8.65162222 C9.73821838,8.59593333 9.62559616,8.56793333 9.5134406,8.73515556 C9.40128505,8.90253333 9.07835171,9.27882222 8.97988505,9.39035556 C8.88157394,9.5022 8.78341838,9.5162 8.61479616,9.43251111 C8.44648505,9.34897778 7.90375171,9.17226667 7.26021838,8.60293333 C6.75948505,8.15991111 6.42130727,7.61297778 6.32299616,7.44544444 C6.2248406,7.27822222 6.31272949,7.18784444 6.39688505,7.10462222 C6.47279616,7.02964444 6.56550727,6.9094 6.64966283,6.81186667 C6.73412949,6.71417778 6.76212949,6.64464444 6.81797394,6.53295556 C6.8744406,6.42142222 6.84628505,6.32388889 6.80397394,6.24004444 C6.76197394,6.15651111 6.42472949,5.33393333 6.28441838,4.99917778 C6.14410727,4.66473333 6.00395171,4.72042222 5.90548505,4.72042222 C5.80732949,4.72042222 5.69486283,4.70642222 5.58255171,4.70642222 C5.4702406,4.70642222 5.28761838,4.74826667 5.13315171,4.91548889 C4.9788406,5.08286667 4.54375171,5.48731111 4.54375171,6.30973333 C4.54375171,7.13231111 5.14715171,7.92704444 5.23161838,8.03842222 C5.31577394,8.1498 6.39672949,9.89264444 8.10939616,10.562 C9.82221838,11.2310444 9.82221838,11.0078222 10.1311517,10.9798222 C10.4397739,10.9519778 11.1276406,10.5755333 11.2685739,10.1854 C11.4085739,9.79464444 11.4085739,9.46004444 11.3667295,9.39035556 Z" transform="translate(0 -1)"/>
</svg>
