<?xml version="1.0" encoding="UTF-8"?>
<svg width="14px" height="14px" viewBox="0 0 14 14" version="1.1" xmlns="http://www.w3.org/2000/svg" xmlns:xlink="http://www.w3.org/1999/xlink">
    <!-- Generator: Sketch 51.2 (57519) - http://www.bohemiancoding.com/sketch -->
    <title>youtube</title>
    <desc>Created with Sketch.</desc>
    <defs></defs>
    <g id="youtube" stroke="none" stroke-width="1" fill="none" fill-rule="evenodd">
        <path d="M13.7138836,3.81969821 L13.7220753,3.85709375 C13.9134993,4.89910003 14.0064189,5.95624947 13.9996558,7.00939652 C14.0034731,8.05237215 13.9105653,9.09352288 13.7138836,10.1573923 C13.5221141,10.9096796 12.9351901,11.5037941 12.167126,11.7170952 C11.7241718,11.8334136 10.8591331,11.9048056 9.64309347,11.9504239 C9.0642665,11.9721379 8.44526813,11.9860705 7.82643443,11.9938087 C7.60997184,11.9965155 7.40893226,11.9982559 7.22840931,11.9992234 C7.11981573,11.9998053 7.04197726,12 6.99999849,12 C6.95801972,12 6.88018124,11.9998053 6.77158767,11.9992234 C6.59106471,11.9982559 6.39002514,11.9965155 6.17356254,11.9938087 C5.55472885,11.9860705 4.93573047,11.9721379 4.3569035,11.9504239 C3.14086392,11.9048056 2.27582516,11.8334136 1.82963054,11.7162345 C1.08570421,11.5163704 0.502213669,10.949357 0.277921655,10.1658158 C0.0864976317,9.12380948 -0.00642189999,8.06666004 0.00034451033,7.0142847 C-0.00494389823,5.96339582 0.0879697418,4.91424649 0.28611335,3.84260772 C0.477882921,3.09032035 1.06480689,2.49620591 1.83287098,2.28290479 C2.27582516,2.16658645 3.14086392,2.09519444 4.3569035,2.04957615 C4.93573047,2.02786213 5.55472885,2.01392954 6.17356254,2.00619126 C6.39002514,2.00348448 6.59106471,2.00174408 6.77158767,2.00077663 C6.88018124,2.00019467 6.95801972,2 6.99999849,2 C7.04188784,2 7.11963444,2.00017753 7.22813248,2.00070842 C7.40853676,2.00159116 7.60945406,2.00317926 7.82578861,2.00564921 C8.44422474,2.01271005 9.06281128,2.02542265 9.64115946,2.04523209 C10.8532751,2.08674917 11.7164073,2.15178952 12.1752171,2.26218134 C12.9351901,2.47329641 13.5221141,3.06741085 13.7138836,3.81969821 Z M6.00756898,8.61508164 L8.40459131,7.33917459 C8.68564905,7.18957083 8.68564905,6.81042917 8.40459131,6.66082541 L6.00756898,5.38491836 C5.72966218,5.23699181 5.38461538,5.42485669 5.38461538,5.72409294 L5.38461538,8.27590706 C5.38461538,8.57514331 5.72966218,8.76300819 6.00756898,8.61508164 Z" fill="#000000" fill-rule="nonzero"></path>
    </g>
</svg>