<?xml version="1.0" standalone="no"?>
<!DOCTYPE svg PUBLIC "-//W3C//DTD SVG 1.1//EN" "http://www.w3.org/Graphics/SVG/1.1/DTD/svg11.dtd" >
<svg xmlns="http://www.w3.org/2000/svg">
<metadata>
<json>
<![CDATA[
{
	"fontFamily": "ffr",
	"majorVersion": 1,
	"minorVersion": 0,
	"version": "Version 1.0",
	"fontId": "ffr",
	"psName": "ffr",
	"subFamily": "Regular",
	"fullName": "ffr",
	"description": "Font generated by IcoMoon."
}
]]>
</json>
</metadata>
<defs>
<font id="ffr" horiz-adv-x="1024">
<font-face units-per-em="1024" ascent="960" descent="-64" />
<missing-glyph horiz-adv-x="1024" />
<glyph unicode="&#x20;" horiz-adv-x="512" d="" />
<glyph unicode="&#xe900;" glyph-name="account" data-tags="account" d="M512 960c-115.415 0-208.98-95.513-208.98-213.333s93.564-213.333 208.98-213.333c115.415 0 208.98 95.513 208.98 213.333s-93.564 213.333-208.98 213.333zM512 384c-243.127 0-438.857-108.926-438.857-256v-192h877.714v192c0 147.074-195.728 256-438.857 256z" />
<glyph unicode="&#xe901;" glyph-name="arrow-left" data-tags="arrow-left" d="M228.010 381.217l331.212-331.212c26.080-26.080 26.080-68.365 0-94.445s-68.365-26.080-94.445 0l-445.217 445.217c-26.080 26.080-26.080 68.365 0 94.445l445.217 445.217c26.080 26.080 68.365 26.080 94.445 0s26.080-68.365 0-94.445l-331.212-331.212h729.207c36.883 0 66.783-29.9 66.783-66.783s-29.9-66.783-66.783-66.783h-729.207z" />
<glyph unicode="&#xe902;" glyph-name="arrow-right" data-tags="arrow-right" d="M795.99 514.783l-331.212 331.212c-26.080 26.080-26.080 68.365 0 94.445s68.365 26.080 94.445 0l445.217-445.217c26.080-26.080 26.080-68.365 0-94.445l-445.217-445.217c-26.080-26.080-68.365-26.080-94.445 0s-26.080 68.365 0 94.445l331.212 331.212h-729.207c-36.883 0-66.783 29.9-66.783 66.783s29.9 66.783 66.783 66.783h729.207z" />
<glyph unicode="&#xe903;" glyph-name="calendar-empty" data-tags="calendar-empty" d="M182.755 916.25v43.75h110.224v-43.75h438.041v43.75h110.224v-43.75h182.755v-980.25h-1024v980.25h182.755zM110.224 810.994v-69.742h803.552v69.742h-72.531v-31.7h-110.224v31.7h-438.041v-31.7h-110.224v31.7h-72.531zM110.224 635.995v-594.738h803.552v594.738h-803.552zM365.51 566.253l110.224 0.129v-105.385h-110.224v105.257zM548.265 566.253h110.224v-105.257h-110.224v105.257zM731.021 566.253l110.224 0.129v-105.385h-110.224v105.257zM182.755 391.254h110.224v-105.257h-110.224v105.257zM365.51 391.254h110.224v-105.257h-110.224v105.257zM548.265 391.254h110.224v-105.257h-110.224v105.257zM731.021 391.254h110.224v-105.257h-110.224v105.257zM182.755 216.255h110.224v-105.257h-110.224v105.257zM365.51 216.255h110.224v-105.257h-110.224v105.257zM548.265 216.255h110.224v-105.257h-110.224v105.257z" />
<glyph unicode="&#xe904;" glyph-name="calendar" data-tags="calendar" horiz-adv-x="951" d="M665.6 960c26.257 0 47.543-20.839 47.543-46.545l-0.073-46.492 95.159-0.053c78.772 0 142.629-62.517 142.629-139.636v-651.636c0-77.119-63.857-139.636-142.629-139.636h-665.6c-78.772 0-142.629 62.517-142.629 139.636v651.636c0 77.119 63.857 139.636 142.629 139.636l95.086 0.053v46.492c0 25.706 21.286 46.545 47.543 46.545s47.543-20.839 47.543-46.545v-46.492h285.184l0.073 46.492c0 25.706 21.286 46.545 47.543 46.545zM617.984 773.851h-285.184v-46.579c0-25.706-21.286-46.545-47.543-46.545s-47.543 20.839-47.543 46.545v46.579l-95.086-0.033c-26.257 0-47.543-20.839-47.543-46.545l-0.073-139.57h760.759v139.57c0 25.706-21.286 46.545-47.543 46.545l-95.159 0.033 0.073-46.579c0-25.706-21.286-46.545-47.543-46.545s-47.543 20.839-47.543 46.545l-0.073 46.579z" />
<glyph unicode="&#xe905;" glyph-name="case" data-tags="case" d="M139.636 711.314h744.727c77.119 0 139.636-58.945 139.636-131.657v-438.857c0-72.712-62.517-131.657-139.636-131.657h-744.727c-77.119 0-139.636 58.945-139.636 131.657v438.857c0 72.712 62.517 131.657 139.636 131.657zM744.727 53.029c0-24.237-20.839-43.886-46.545-43.886s-46.545 19.648-46.545 43.886v702.171c0 24.237-20.839 43.886-46.545 43.886h-186.182c-25.706 0-46.545-19.648-46.545-43.886v-702.171c0-24.237-20.839-43.886-46.545-43.886s-46.545 19.648-46.545 43.886v702.171c0 72.712 62.517 131.657 139.636 131.657h186.182c77.119 0 139.636-58.945 139.636-131.657v-702.171z" />
<glyph unicode="&#xe906;" glyph-name="arrow-triangle-bottom" data-tags="arrow-triangle-bottom" d="M512 155.429l512 658.286h-1024z" />
<glyph unicode="&#xe907;" glyph-name="clock" data-tags="clock" d="M512-64c-282.77 0-512 229.23-512 512s229.23 512 512 512c282.77 0 512-229.23 512-512s-229.23-512-512-512zM558.545 476.767v250.506c0 25.706-20.839 46.545-46.545 46.545s-46.545-20.839-46.545-46.545v-279.273c0-17.63 9.961-33.747 25.73-41.632l186.182-93.091c22.992-11.496 50.951-2.177 62.447 20.816s2.177 50.951-20.816 62.447l-160.452 80.226z" />
<glyph unicode="&#xe908;" glyph-name="close" data-tags="close" d="M615.44 448l387.137-387.137c28.564-28.564 28.564-74.876 0-103.44s-74.876-28.564-103.44 0l-387.137 387.137-387.137-387.137c-28.564-28.564-74.876-28.564-103.44 0s-28.564 74.876 0 103.44l387.137 387.137-387.137 387.137c-28.564 28.564-28.564 74.876 0 103.44s74.876 28.564 103.44 0l387.137-387.137 387.137 387.137c28.564 28.564 74.876 28.564 103.44 0s28.564-74.876 0-103.44l-387.137-387.137z" />
<glyph unicode="&#xe909;" glyph-name="delete" data-tags="delete" d="M579.882 448l110.059 110.059c18.745 18.745 18.745 49.137 0 67.882s-49.137 18.745-67.882 0l-110.059-110.059-110.059 110.059c-18.745 18.745-49.137 18.745-67.882 0s-18.745-49.137 0-67.882l110.059-110.059-110.059-110.059c-18.745-18.745-18.745-49.137 0-67.882s49.137-18.745 67.882 0l110.059 110.059 110.059-110.059c18.745-18.745 49.137-18.745 67.882 0s18.745 49.137 0 67.882l-110.059 110.059zM512-64c-282.77 0-512 229.23-512 512s229.23 512 512 512c282.77 0 512-229.23 512-512s-229.23-512-512-512z" />
<glyph unicode="&#xe90a;" glyph-name="documents" data-tags="documents" d="M558.545 960c17.635 0 34.548-6.743 47.018-18.745l325.818-313.6c12.47-12.002 19.475-28.281 19.475-45.255v-492.8c0-84.831-71.448-153.6-159.584-153.6h-558.545c-88.136 0-159.584 68.769-159.584 153.6v716.8c0 84.831 71.448 153.6 159.584 153.6h325.818z" />
<glyph unicode="&#xe90b;" glyph-name="download" data-tags="download" d="M563.2 418.008l168.596 168.596c19.995 19.995 52.413 19.995 72.408 0s19.995-52.413 0-72.408l-256-256c-19.995-19.995-52.413-19.995-72.408 0l-256 256c-19.995 19.995-19.995 52.413 0 72.408s52.413 19.995 72.408 0l168.596-168.596v490.792c0 28.277 22.923 51.2 51.2 51.2s51.2-22.923 51.2-51.2v-490.792zM921.6 294.4c0 28.277 22.923 51.2 51.2 51.2s51.2-22.923 51.2-51.2v-204.8c0-84.831-68.769-153.6-153.6-153.6h-716.8c-84.831 0-153.6 68.769-153.6 153.6v204.8c0 28.277 22.923 51.2 51.2 51.2s51.2-22.923 51.2-51.2v-204.8c0-28.277 22.923-51.2 51.2-51.2h716.8c28.277 0 51.2 22.923 51.2 51.2v204.8z" />
<glyph unicode="&#xe90c;" glyph-name="external_link" data-tags="external_link" d="M849.192 857.6h-183.592c-28.277 0-51.2 22.923-51.2 51.2s22.923 51.2 51.2 51.2h307.2c28.277 0 51.2-22.923 51.2-51.2v-307.2c0-28.277-22.923-51.2-51.2-51.2s-51.2 22.923-51.2 51.2v183.592l-475.796-475.796c-19.995-19.995-52.413-19.995-72.408 0s-19.995 52.413 0 72.408l475.796 475.796zM768 396.8c0 28.277 22.923 51.2 51.2 51.2s51.2-22.923 51.2-51.2v-307.2c0-84.831-68.769-153.6-153.6-153.6h-563.2c-84.831 0-153.6 68.769-153.6 153.6v563.2c0 84.831 68.769 153.6 153.6 153.6h307.2c28.277 0 51.2-22.923 51.2-51.2s-22.923-51.2-51.2-51.2h-307.2c-28.277 0-51.2-22.923-51.2-51.2v-563.2c0-28.277 22.923-51.2 51.2-51.2h563.2c28.277 0 51.2 22.923 51.2 51.2v307.2z" />
<glyph unicode="&#xe90d;" glyph-name="facebook" data-tags="facebook" d="M804.571 628.424h-174.369v106.279c0 39.913 28.465 49.218 48.513 49.218 20.003 0 123.051 0 123.051 0v175.464l-169.465 0.615c-188.123 0-230.934-130.867-230.934-214.614v-116.962h-108.795v-180.806h108.795c0-232.037 0-511.618 0-511.618h228.835c0 0 0 282.337 0 511.618h154.412l19.957 180.806z" />
<glyph unicode="&#xe90e;" glyph-name="geoloc" data-tags="geoloc" d="M404.845 340.845l-375.009 93.752c-35.871 8.968-40.723 57.962-7.307 73.791l945.086 447.672c33.439 15.84 68.285-19.006 52.445-52.445l-447.672-945.086c-15.829-33.416-64.823-28.565-73.791 7.307l-93.752 375.009z" />
<glyph unicode="&#xe90f;" glyph-name="info" data-tags="info" d="M512-64c-282.77 0-512 229.23-512 512s229.23 512 512 512c282.77 0 512-229.23 512-512s-229.23-512-512-512zM558.545 261.818v186.182c0 25.706-20.839 46.545-46.545 46.545s-46.545-20.839-46.545-46.545v-186.182c0-25.706 20.839-46.545 46.545-46.545s46.545 20.839 46.545 46.545zM512 541.091c25.706 0 46.545 20.839 46.545 46.545s-20.839 46.545-46.545 46.545c-25.706 0-46.545-20.839-46.545-46.545s20.839-46.545 46.545-46.545z" />
<glyph unicode="&#xe910;" glyph-name="instagram" data-tags="instagram" d="M192 832c-35.346 0-64-28.654-64-64v-640c0-35.346 28.654-64 64-64h640c35.346 0 64 28.654 64 64v640c0 35.346-28.654 64-64 64h-640zM192 960h640c106.039 0 192-85.961 192-192v-640c0-106.039-85.961-192-192-192h-640c-106.039 0-192 85.961-192 192v640c0 106.039 85.961 192 192 192zM530.102 570.087c-52.67 7.81-104.412-19.037-128.351-66.599s-14.678-105.113 22.973-142.764c37.651-37.651 95.203-46.912 142.764-22.973s74.409 75.681 66.599 128.351c-7.975 53.781-50.203 96.010-103.985 103.985zM629.144 215.255c-100.407-50.538-221.906-30.987-301.391 48.498s-99.036 200.984-48.498 301.391c50.538 100.407 159.77 157.086 270.963 140.597 113.538-16.836 202.687-105.985 219.523-219.523 16.489-111.193-40.19-220.425-140.597-270.963zM800 704c-17.673 0-32 14.327-32 32s14.327 32 32 32c17.673 0 32-14.327 32-32s-14.327-32-32-32z" />
<glyph unicode="&#xe911;" glyph-name="jersey" data-tags="jersey" d="M5.626 521.915l-5.626 6.045v279.879l3.623 5.649 25.59 10.474 338.447 136.037 6.364-1.97 16.941-23.407c6.235-8.124 17.97-20.519 34.168-32.927 26.867-20.58 56.163-32.881 86.867-32.881s60 12.301 86.867 32.881c16.198 12.408 27.934 24.803 34.068 32.793l17.041 23.541 6.364 1.97 26.832-10.484 337.204-136.027 3.623-5.649v-279.879l-5.626-6.045h-150.181v-579.87l-5.626-6.045h-701.133l-5.626 6.045v579.87h-150.181zM206.012 793.176v-139.662l-5.626-6.045h-77.904l-5.626 6.045v103.752l-27.699-11.16v-128.397h150.181l5.626-6.045v-579.87h534.073v579.87l5.626 6.045h150.181v128.397l-27.699 11.16v-103.752l-5.626-6.045h-77.904l-5.626 6.045v139.662l-140.128 55.993c-41.844-47.045-92.43-76.146-165.86-76.146s-124.016 29.101-165.86 76.146l-140.128-55.993zM297.765 438.213l-5.626 6.045v83.702l5.626 6.045c7.901 0 16.877 4.188 25.991 11.276 5.645 4.39 10.045 8.789 11.987 10.969l10.955 17.002 4.626 2.604h82.773l5.626-6.045v-334.809l-5.626-6.045h-77.904l-5.626 6.045v220.857c-20.575-12.865-33.249-17.646-52.801-17.646zM609.38 575.857c56.362 0 103.006-50.116 103.006-110.673v-125.553c0-60.557-46.644-110.673-103.006-110.673s-103.006 50.116-103.006 110.673v125.553c0 60.557 46.644 110.673 103.006 110.673zM609.38 480.064c-8 0-13.85-6.285-13.85-14.88v-125.553c0-8.595 5.85-14.88 13.85-14.88s13.85 6.285 13.85 14.88v125.553c0 8.595-5.85 14.88-13.85 14.88z" />
<glyph unicode="&#xe912;" glyph-name="list" data-tags="list" d="M273.067 667.429c-29.624 0-53.638 32.747-53.638 73.143s24.015 73.143 53.638 73.143h697.295c29.624 0 53.638-32.747 53.638-73.143s-24.015-73.143-53.638-73.143h-697.295zM73.143 667.429c-40.396 0-73.143 32.747-73.143 73.143s32.747 73.143 73.143 73.143c40.396 0 73.143-32.747 73.143-73.143s-32.747-73.143-73.143-73.143zM73.143 374.857c-40.396 0-73.143 32.747-73.143 73.143s32.747 73.143 73.143 73.143c40.396 0 73.143-32.747 73.143-73.143s-32.747-73.143-73.143-73.143zM73.143 82.286c-40.396 0-73.143 32.747-73.143 73.143s32.747 73.143 73.143 73.143c40.396 0 73.143-32.747 73.143-73.143s-32.747-73.143-73.143-73.143zM273.067 374.857c-29.624 0-53.638 32.747-53.638 73.143s24.015 73.143 53.638 73.143h697.295c29.624 0 53.638-32.747 53.638-73.143s-24.015-73.143-53.638-73.143h-697.295zM273.067 82.286c-29.624 0-53.638 32.747-53.638 73.143s24.015 73.143 53.638 73.143h697.295c29.624 0 53.638-32.747 53.638-73.143s-24.015-73.143-53.638-73.143h-697.295z" />
<glyph unicode="&#xe913;" glyph-name="mail" data-tags="mail" d="M532.392 413.248c-11.862-9.681-28.922-9.681-40.784 0l-374.461 305.916c18.578 13.896 41.174 21.408 64.396 21.408h660.701c23.222 0 45.818-7.512 64.396-21.408l-374.247-305.916zM573.283 363.582l371.564 303.775c3.955-11.286 5.987-23.153 6.010-35.109v-441.854c-0.059-59.682-48.557-108.050-108.4-108.109h-660.915c-59.843 0.059-108.34 48.426-108.4 108.109v441.854c0.023 11.955 2.055 23.823 6.010 35.109l371.671-303.775c35.605-29.103 86.855-29.103 122.459 0z" />
<glyph unicode="&#xe914;" glyph-name="arrow-triangle-up" data-tags="arrow-triangle-up" d="M512 740.571l512-658.286h-1024z" />
<glyph unicode="&#xe915;" glyph-name="phone" data-tags="phone" d="M333.816 960h356.369c65.208 0 88.854-6.79 112.693-19.539s42.548-31.458 55.298-55.298c12.749-23.839 19.539-47.485 19.539-112.693v-648.94c0-65.208-6.79-88.854-19.539-112.693s-31.458-42.548-55.298-55.298c-23.839-12.749-47.485-19.539-112.693-19.539h-356.369c-65.208 0-88.854 6.79-112.693 19.539s-42.548 31.458-55.298 55.298c-12.749 23.839-19.539 47.485-19.539 112.693v648.94c0 65.208 6.79 88.854 19.539 112.693s31.458 42.548 55.298 55.298c23.839 12.749 47.485 19.539 112.693 19.539zM313.194 886.857c-32.604 0-44.427-3.395-56.347-9.769s-21.274-15.729-27.649-27.649c-6.375-11.92-9.769-23.743-9.769-56.347v-470.756c0-32.604 3.395-44.427 9.769-56.347s15.729-21.274 27.649-27.649c11.92-6.375 23.743-9.769 56.347-9.769h397.613c32.604 0 44.427 3.395 56.347 9.769s21.274 15.729 27.649 27.649c6.375 11.92 9.769 23.743 9.769 56.347v470.756c0 32.604-3.395 44.427-9.769 56.347s-15.729 21.274-27.649 27.649c-11.92 6.375-23.743 9.769-56.347 9.769h-397.613zM512 9.143c40.396 0 73.143 32.747 73.143 73.143s-32.747 73.143-73.143 73.143c-40.396 0-73.143-32.747-73.143-73.143s32.747-73.143 73.143-73.143z" />
<glyph unicode="&#xe916;" glyph-name="pj" data-tags="pj" d="M759.553 886.846c-68.923-0.603-137.645-27.151-190.74-77.23h-1.603v-1.609l-307.748-308.921c-62.111-62.347-62.111-164.517 0-226.864s163.892-62.347 226.002 0l267.676 268.697-73.731 72.403-266.074-268.697c-19.835-19.911-61.91-19.911-81.746 0s-19.835 62.146 0 82.057l307.748 307.312c68.322 64.56 172.307 68.984 234.017 3.218 63.513-67.778 63.313-176.182 1.603-238.127l-307.748-308.921c-102.983-107.6-275.691-103.376-384.685 1.609-107.592 103.778-108.794 275.334 0 384.543l190.74 189.858-72.128 74.012-190.74-191.467c-147.663-148.226-147.262-387.559 1.603-530.958 146.861-141.589 383.883-148.025 527.339 0 0.601 0.603 1.002 1.006 1.603 1.609l306.145 307.312c102.382 102.773 102.182 273.926 1.603 381.325-51.291 54.705-120.214 79.443-189.137 78.839z" />
<glyph unicode="&#xe917;" glyph-name="place" data-tags="place" d="M703.121 162.277c-37.264-39.335-77.082-75.17-116.911-106.886-13.962-11.118-26.953-20.945-38.655-29.396-7.131-5.15-12.327-8.749-15.269-10.71-12.284-8.19-28.288-8.19-40.572 0-2.942 1.961-8.138 5.56-15.269 10.71-11.702 8.451-24.693 18.278-38.655 29.396-39.829 31.716-79.646 67.551-116.911 106.886-108.677 114.715-174.594 235.562-174.594 358.866 0 201.978 163.736 365.714 365.714 365.714s365.714-163.736 365.714-365.714c0-123.304-65.916-244.151-174.594-358.866zM512 374.857c80.791 0 146.286 65.494 146.286 146.286s-65.494 146.286-146.286 146.286c-80.791 0-146.286-65.494-146.286-146.286s65.494-146.286 146.286-146.286z" />
<glyph unicode="&#xe918;" glyph-name="search" data-tags="search" d="M437.627 256.879c156.391 0 283.17 123.671 283.17 276.226s-126.78 276.226-283.17 276.226c-156.391 0-283.17-123.671-283.17-276.226s126.78-276.226 283.17-276.226zM786.408 275.221l236.253-236.253-106.539-106.539-241.645 241.645c-68.27-42.944-149.576-67.864-236.85-67.864-241.695 0-437.627 191.127-437.627 426.895s195.932 426.895 437.627 426.895c241.695 0 437.627-191.127 437.627-426.895 0-96.889-33.089-186.239-88.846-257.884z" />
<glyph unicode="&#xe919;" glyph-name="share" data-tags="share" d="M614.4 82.286v219.429c-339.751 2.326-614.4-191.299-614.4-191.299s59.97 441.81 614.4 557.013v219.429l409.6-392.091-208.769-207.783-200.831-204.697z" />
<glyph unicode="&#xe91a;" glyph-name="shield" data-tags="shield" d="M512-64c0 0 438.857 204.8 438.857 512v358.4l-438.857 153.6-438.857-153.6v-358.4c0-307.2 438.857-512 438.857-512z" />
<glyph unicode="&#xe91b;" glyph-name="site" data-tags="site" d="M369.469 363.603c-21.797 29.161-15.845 70.48 13.299 92.295 29.154 21.823 70.47 15.862 92.274-13.308 27.537-36.84 69.704-59.894 115.556-63.18s90.87 13.519 123.379 46.064l133.813 133.894c60.054 62.223 59.195 161.135-1.93 222.304-61.054 61.097-159.869 62.081-221.42 2.599l-77.18-76.786c-25.818-25.686-67.561-25.564-93.228 0.272-25.658 25.827-25.537 67.572 0.272 93.249l77.86 77.453c113.899 110.085 294.955 108.511 406.925-3.538 112.054-112.133 113.444-293.291 2.733-407.984l-134.608-134.703c-59.543-59.607-142.025-90.397-226.036-84.376s-161.264 48.258-211.71 115.746zM654.531 532.397c21.797-29.161 15.845-70.48-13.299-92.295-29.154-21.823-70.47-15.862-92.274 13.308-27.537 36.84-69.704 59.894-115.556 63.18s-90.87-13.519-123.379-46.064l-133.813-133.894c-60.054-62.223-59.195-161.135 1.93-222.304 61.041-61.084 159.856-62.094 221.284-2.735l76.731 76.786c25.743 25.761 67.486 25.761 93.229 0 25.734-25.752 25.734-67.497-0.001-93.25l-77.547-77.588c-113.899-110.085-294.955-108.511-406.925 3.538-112.054 112.133-113.444 293.291-2.733 407.984l134.608 134.703c59.543 59.607 142.025 90.397 226.036 84.376s161.264-48.258 211.71-115.746z" />
<glyph unicode="&#xe91c;" glyph-name="trophy" data-tags="trophy" horiz-adv-x="1138" d="M889.004 890.643c18.272 5.918 37.804 9.122 58.172 9.122 115.927 0 190.602-66.464 190.602-193.849 0-115.522-61.669-182.467-212.072-281.81-6.416-4.238-28.455-18.716-31.962-21.028-57.707-38.033-89.478-61.307-117.657-88.023-2.931-2.779-5.968-5.21-9.083-7.313-35.528-63.057-79.059-103.49-131.665-120.918v-130.352h-127.068v130.352c-52.768 17.482-96.405 58.11-131.993 121.502-2.818 1.966-5.569 4.204-8.233 6.73-28.775 27.281-61.295 50.725-122.394 90.241-2.954 1.91-22.829 14.733-28.646 18.503-154.456 100.083-217.004 166.272-217.004 282.117 0 127.385 74.675 193.849 190.602 193.849 22.602 0 44.173-3.945 64.138-11.166-0.164 2.501-0.327 5.008-0.487 7.522l-4.083 63.879h643.273l-4.083-63.879c-0.117-1.829-0.235-3.655-0.354-5.478v0zM385.709 839.529c29.649-365.093 102.054-542.118 186.095-542.118s156.446 177.025 186.095 542.118h-372.19zM381.203 56.471h381.203v-120.471h-381.203v120.471zM254.135 705.915c0 41.837-29.996 73.379-63.534 73.379-47.48 0-63.534-14.288-63.534-73.379 0-61.217 40.688-104.281 161.586-182.624-19.717 72.53-34.518 144.543-34.518 182.624zM883.642 705.915c0-38.92-13.601-111.361-31.9-183.839l1.327 0.876c117.74 77.769 157.64 121.083 157.64 182.963 0 59.090-16.053 73.379-63.534 73.379-33.537 0-63.534-31.542-63.534-73.379z" />
<glyph unicode="&#xe91d;" glyph-name="twitter" data-tags="twitter" d="M1024 727.132c-37.644-14.707-78.157-24.628-120.665-29.068 43.402 22.838 76.681 59.013 92.375 102.167-40.596-21.175-85.536-36.54-133.407-44.835-38.309 35.883-92.915 58.318-153.341 58.318-116.009 0-210.067-82.673-210.067-184.657 0-14.452 1.85-28.538 5.446-42.076-174.606 7.71-329.423 81.211-433.043 192.933-18.084-27.259-28.436-58.976-28.436-92.849 0-64.055 37.083-120.583 93.456-153.689-34.422 0.968-66.828 9.281-95.16 23.112-0.021-0.767-0.021-1.553-0.021-2.339 0-89.451 72.42-164.066 168.536-181.058-17.627-4.202-36.189-6.468-55.354-6.468-13.553 0-26.711 1.151-39.536 3.325 26.752-73.355 104.327-126.759 196.244-128.238-71.9-49.53-162.466-79.055-260.911-79.055-16.941 0-33.674 0.877-50.116 2.594 92.998-52.417 203.416-82.965 322.044-82.965 386.44 0 597.733 281.361 597.733 525.377 0 8.002-0.187 15.986-0.582 23.916 41.032 25.98 76.66 58.519 104.805 95.553z" />
<glyph unicode="&#xe91e;" glyph-name="valid" data-tags="valid" d="M512-64c-282.77 0-512 229.23-512 512s229.23 512 512 512c282.77 0 512-229.23 512-512s-229.23-512-512-512zM414.476 310.071l-139.553 144.921c-12.695 13.183-33.278 13.183-45.973 0s-12.695-34.558 0-47.741l162.54-168.791c12.695-13.183 33.278-13.183 45.973 0l357.587 371.341c12.695 13.183 12.695 34.558 0 47.741s-33.278 13.183-45.973 0l-334.601-347.47z" />
<glyph unicode="&#xe91f;" glyph-name="youtube" data-tags="youtube" d="M1003.073 680.616l0.599-2.735c14.001-76.215 20.798-153.538 20.303-230.568 0.279-76.286-6.516-152.439-20.902-230.253-14.027-55.024-56.956-98.48-113.134-114.081-32.399-8.508-95.67-13.73-184.615-17.066-42.337-1.588-87.612-2.607-132.876-3.173-15.833-0.198-30.537-0.325-43.741-0.396-7.943-0.043-13.636-0.057-16.707-0.057s-8.764 0.014-16.707 0.057c-13.204 0.071-27.909 0.198-43.741 0.396-45.263 0.566-90.539 1.585-132.876 3.173-88.945 3.337-152.216 8.558-184.852 17.129-54.413 14.619-97.091 56.092-113.496 113.402-14.001 76.215-20.798 153.538-20.303 230.512-0.387 76.865 6.409 153.603 20.902 231.986 14.027 55.024 56.956 98.48 113.134 114.081 32.399 8.508 95.67 13.73 184.615 17.066 42.337 1.588 87.612 2.607 132.876 3.173 15.833 0.198 30.537 0.325 43.741 0.396 7.943 0.043 13.636 0.057 16.707 0.057 3.064 0 8.751-0.013 16.686-0.052 13.195-0.065 27.891-0.181 43.714-0.361 45.234-0.516 90.479-1.446 132.781-2.895 88.658-3.037 151.79-7.794 185.348-15.868 55.587-15.442 98.516-58.897 112.542-113.921zM439.411 329.868l175.325 93.323c20.557 10.942 20.557 38.674 0 49.616l-175.325 93.323c-20.327 10.82-45.565-2.921-45.565-24.808v-186.647c0-21.887 25.238-35.628 45.565-24.808z" />
<glyph unicode="&#xe920;" glyph-name="articles-empty" data-tags="articles-empty" d="M73.143 960v-1024h877.714v1024h-877.714zM160.914 874.667h702.171v-853.333h-702.171v853.333zM248.686 746.667v-85.333h526.629v85.333h-526.629zM248.686 576v-85.333h526.629v85.333h-526.629zM402.286 448c-38.057 0-71.829-25.167-87.771-56s-21.943-67.333-21.943-109.333c0-23.5 8.571-50.833 13.714-77.333-19.714-6-37.2-18.667-56.229-18.667v-85.333c29.486 0 59.486 4.5 87.771 13.333 4.457-6.5 6.514-14.167 12.343-20 17.143-17.167 44.229-30.667 72.686-30.667 69.6 0 116.057 44.833 145.371 80 6 7.167 8.743 11 13.714 17.333 1.2-5.167 0.343-8.667 2.743-14.667 3.429-8.5 8.571-18.167 19.2-26.667s26.571-13.333 39.771-13.333c28.457 0 43.029 15 53.486 25.333s19.029 20.5 27.429 29.333c16.629 17.667 28.629 28 48 28v85.333c-53.486 0-90.343-31.167-112.457-54.667-0.857 5.167-0.686 8.5-2.743 14.667-2.743 8.167-7.714 18.667-17.829 28s-26.057 14.667-39.771 14.667c-34.286 0-50.057-20-63.086-34.667s-24.857-30.833-37.029-45.333c-24.171-28.833-45.257-48-76.8-48-2.229 0-4.629 2.167-6.857 4 2.571 1.667 5.829 2.167 8.229 4 49.714 36.333 87.771 91.333 87.771 157.333 0 32.667-6.686 63.5-24.686 89.333s-50.743 44-85.029 44zM398.171 362.667c1.029 0.833 1.371 0 4.114 0 9.257 0 8.4-1 12.343-6.667s9.6-20 9.6-41.333c0-27.167-15.086-50.667-37.029-72-1.886 14.167-6.857 27.833-6.857 40 0 33.833 6.343 59 12.343 70.667 3.086 5.833 4.457 8.5 5.486 9.333z" />
<glyph unicode="&#xe921;" glyph-name="zoom_moins" data-tags="zoom_moins" d="M73.143 521.143h877.714c40.396 0 73.143-32.747 73.143-73.143s-32.747-73.143-73.143-73.143h-877.714c-40.396 0-73.143 32.747-73.143 73.143s32.747 73.143 73.143 73.143z" />
<glyph unicode="&#xe922;" glyph-name="zoom_plus" data-tags="zoom_plus" d="M448 512v384c0 35.346 28.654 64 64 64s64-28.654 64-64v-384h384c35.346 0 64-28.654 64-64s-28.654-64-64-64h-384v-384c0-35.346-28.654-64-64-64s-64 28.654-64 64v384h-384c-35.346 0-64 28.654-64 64s28.654 64 64 64h384z" />
<glyph unicode="&#xe923;" glyph-name="chrevron-left" data-tags="chrevron-left" d="M501.961 448l268.334-293.49c45.703-49.987 45.703-131.032 0-181.019s-119.801-49.987-165.503 0l-351.086 384c-45.703 49.987-45.703 131.032 0 181.019l351.086 384c45.703 49.987 119.801 49.987 165.503 0s45.703-131.032 0-181.019l-268.334-293.49z" />
<glyph unicode="&#xe924;" glyph-name="chrevron-right" data-tags="chrevron-right" d="M522.039 448l-268.334 293.49c-45.703 49.987-45.703 131.032 0 181.019s119.801 49.987 165.503 0l351.086-384c45.703-49.987 45.703-131.032 0-181.019l-351.086-384c-45.703-49.987-119.801-49.987-165.503 0s-45.703 131.032 0 181.019l268.334 293.49z" />
<glyph unicode="&#xe925;" glyph-name="jersey-empty" data-tags="jersey-empty" horiz-adv-x="1109" d="M6.095 521.915l-6.095 6.045v279.879l3.925 5.649 27.722 10.474 366.651 136.037 6.894-1.97 18.353-23.407c6.754-8.124 19.467-20.519 37.015-32.927 29.106-20.58 60.843-32.881 94.106-32.881s65 12.301 94.106 32.881c17.548 12.408 30.261 24.803 36.907 32.793l18.462 23.541 6.894 1.97 29.068-10.484 365.304-136.027 3.925-5.649v-279.879l-6.095-6.045h-162.696v-579.87l-6.095-6.045h-759.56l-6.095 6.045v579.87h-162.696zM223.179 793.176v-139.662l-6.095-6.045h-84.396l-6.095 6.045v103.752l-30.007-11.16v-128.397h162.696l6.095-6.045v-579.87h578.579v579.87l6.095 6.045h162.696v128.397l-30.007 11.16v-103.752l-6.095-6.045h-84.396l-6.095 6.045v139.662l-151.805 55.993c-45.331-47.045-100.133-76.146-179.682-76.146s-134.351 29.101-179.682 76.146l-151.805-55.993zM322.579 438.213l-6.095 6.045v83.702l6.095 6.045c8.559 0 18.283 4.188 28.157 11.276 6.116 4.39 10.882 8.789 12.985 10.969l11.868 17.002 5.011 2.604h89.67l6.095-6.045v-334.809l-6.095-6.045h-84.396l-6.095 6.045v220.857c-22.289-12.865-36.020-17.646-57.201-17.646zM660.161 575.857c61.059 0 111.59-50.116 111.59-110.673v-125.553c0-60.557-50.531-110.673-111.59-110.673s-111.59 50.116-111.59 110.673v125.553c0 60.557 50.531 110.673 111.59 110.673zM660.161 480.064c-8.667 0-15.004-6.285-15.004-14.88v-125.553c0-8.595 6.337-14.88 15.004-14.88s15.004 6.285 15.004 14.88v125.553c0 8.595-6.337 14.88-15.004 14.88z" />
<glyph unicode="&#xe926;" glyph-name="menu" data-tags="menu" d="M0 813.714h1024v-146.286h-1024v146.286zM0 521.143h1024v-146.286h-1024v146.286zM0 228.571h1024v-146.286h-1024v146.286z" />
<glyph unicode="&#xe927;" glyph-name="publications" data-tags="publications" d="M512 177.43l-349.863-231.78c-38.041-25.202-88.995 1.897-88.995 47.33v809.011c0 88.177 75.293 158.010 166.275 158.010h545.164c90.982 0 166.275-69.833 166.275-158.010v-809.011c0-45.433-50.954-72.531-88.995-47.33l-349.863 231.78z" />
<glyph unicode="&#xe928;" glyph-name="chrevron-down" data-tags="chrevron-down" horiz-adv-x="1755" d="M877.714 430.431l503.126 469.585c85.692 79.979 224.627 79.979 310.319 0s85.692-209.652 0-289.631l-658.286-614.4c-85.692-79.979-224.627-79.979-310.319 0l-658.286 614.4c-85.692 79.979-85.692 209.652 0 289.631s224.627 79.979 310.319 0l503.126-469.585z" />
<glyph unicode="&#xe929;" glyph-name="chrevron-up" data-tags="chrevron-up" horiz-adv-x="1755" d="M877.714 465.569l503.126-469.585c85.692-79.979 224.627-79.979 310.319 0s85.692 209.652 0 289.631l-658.286 614.4c-85.692 79.979-224.627 79.979-310.319 0l-658.286-614.4c-85.692-79.979-85.692-209.652 0-289.631s224.627-79.979 310.319 0l503.126 469.585z" />
<glyph unicode="&#xe92a;" glyph-name="sync" data-tags="sync" d="M955.651 743.819l-69.127-36.756c-7.032-3.739-15.624-1.512-20.172 5.008-62.401 89.265-152.131 155.469-257.275 187.642-125.427 38.040-258.184 25.695-373.544-35.643-111.042-58.022-193.604-154.715-233.921-273.25-2.846-8.35 2.001-17.466 10.449-20.035l166.122-50.789c23.141 75.996 75.257 139.256 146.198 176.976 70.416 37.441 151.61 44.247 228.841 21.048 55.098-16.845 102.941-49.445 138.841-92.783 6.218-7.51 3.578-18.934-5.029-23.51l-58.643-31.181c-12.346-6.564-10.616-24.787 2.755-28.901l250.272-76.982c8.294-2.549 17.084 2.105 19.633 10.398l77.006 250.264c4.122 13.395-10.027 25.076-22.405 18.494zM717.921 2.54c100.295 60.348 173.581 154.415 206.108 266.951 2.447 8.485-2.853 17.34-11.411 19.503l-142.567 35.926c-8.201 2.068-16.317-2.819-18.839-10.894-20.782-66.538-64.262-121.9-125.083-158.464-121.96-72.031-276.376-41.302-362.235 66.673-5.81 7.319-3.446 18.187 4.6 22.935l53.313 31.571c12.057 7.146 9.45 25.289-4.122 28.746l-234.978 59.849c-8.429 2.151-16.983-2.948-19.109-11.385l-59.319-234.901c-3.425-13.555 11.238-24.513 23.271-17.36l71.522 42.498c134.484-203.3 406.774-267.309 618.848-141.65z" />
<glyph unicode="&#xe92b;" glyph-name="shield-alt" data-tags="shield-alt" d="M284.986 253.939c24.392-29.979 54.059-59.368 88.394-87.982 38.419-32.018 79.84-60.62 121.25-85.271 9.417-5.606 17.989-10.521 25.548-14.723 7.559 4.202 16.13 9.117 25.548 14.723 41.41 24.65 82.83 53.252 121.25 85.271 105.28 87.739 166.672 182.758 166.672 279.749v246.722l-548.661-438.489zM222.51 359.907l523.441 418.333-225.774 53.759-313.469-74.641v-311.653c0-28.82 5.42-57.466 15.802-85.798zM540.038-50.648l-28.038-13.352-28.038 13.352c-13.44 6.401-35.725 18.15-63.966 34.961-46.753 27.831-93.496 60.108-137.363 96.666-129.822 108.193-209.491 231.498-209.491 369.626v404.898l438.857 104.497 438.857-104.497v-404.898c0-138.127-79.669-261.433-209.491-369.626-43.867-36.558-90.609-68.835-137.363-96.666-28.241-16.811-50.525-28.561-63.966-34.961z" />
<glyph unicode="&#xe92c;" glyph-name="arrow-down" data-tags="arrow-down" d="M578.783 164.010l331.212 331.212c26.080 26.080 68.365 26.080 94.445 0s26.080-68.365 0-94.445l-445.217-445.217c-26.080-26.080-68.365-26.080-94.445 0l-445.217 445.217c-26.080 26.080-26.080 68.365 0 94.445s68.365 26.080 94.445 0l331.212-331.212v729.207c0 36.883 29.9 66.783 66.783 66.783s66.783-29.9 66.783-66.783v-729.207z" />
<glyph unicode="&#xe92d;" glyph-name="arrow-up" data-tags="arrow-up" d="M445.217 731.99l-331.212-331.212c-26.080-26.080-68.365-26.080-94.445 0s-26.080 68.365 0 94.445l445.217 445.217c26.080 26.080 68.365 26.080 94.445 0l445.217-445.217c26.080-26.080 26.080-68.365 0-94.445s-68.365-26.080-94.445 0l-331.212 331.212v-729.207c0-36.883-29.9-66.783-66.783-66.783s-66.783 29.9-66.783 66.783v729.207z" />
<glyph unicode="&#xe92e;" glyph-name="coment-fb" data-tags="coment-fb" d="M526.91 219.419l-227.145-210.276v210.276h-91.403c-74.68 0-135.219 60.408-135.219 135.066v397.306c0 74.595 60.329 135.066 135.219 135.066h607.276c74.68 0 135.219-60.408 135.219-135.066v-397.306c0-74.595-60.329-135.066-135.219-135.066h-288.728z" />
<glyph unicode="&#xe92f;" glyph-name="coment-insta" data-tags="coment-insta" d="M917.127 278.98l33.73-269.837-269.837 33.73c-52.022-21.729-109.119-33.73-169.020-33.73-242.374 0-438.857 196.483-438.857 438.857s196.483 438.857 438.857 438.857c242.374 0 438.857-196.483 438.857-438.857 0-59.901-12.001-116.998-33.73-169.020z" />
<glyph unicode="&#xe930;" glyph-name="like-fb" data-tags="like-fb" d="M73.143 9.143h187.061v522.752h-187.061v-522.752zM894.259 423.395v21.659c64.491 0 85.695 129.901 0 129.901h-281.616c15.564 32.114 16.708 28.887 46.932 129.901s-90.138 267.21-140.821 129.901c-9.658-26.176-10.323-59.968-23.466-86.609-16.336-33.172-22.827-58.806-46.932-86.583-43.446-50.081-115.945-136.251-140.795-151.559v-454.627l472.242 0.516c119.91 0 106.607 107.726 44.058 107.726v21.633c82.875 0 115.892 108.268 46.932 108.268v21.633c69.094 0 95.114 108.242 23.466 108.242v0z" />
<glyph unicode="&#xe931;" glyph-name="like-insta" data-tags="like-insta" d="M883.177 749.051c-43.313 41.402-102.071 64.664-163.34 64.664s-120.026-23.261-163.34-64.664l-44.509-42.525-44.509 42.525c-90.21 86.19-236.469 86.19-326.679 0s-90.21-225.93 0-312.12l371.188-354.645 371.188 354.645c43.334 41.383 67.68 97.522 67.68 156.060s-24.346 114.677-67.68 156.060z" />
<glyph unicode="&#xe932;" glyph-name="rt" data-tags="rt" d="M235.735 132.156l98.712-96.917c14.412-14.15 14.625-37.305 0.474-51.718s-37.305-14.625-51.718-0.474l-162.54 159.584c-14.6 14.334-14.6 37.858 0 52.192l162.54 159.584c14.412 14.15 37.567 13.938 51.718-0.474s13.938-37.567-0.474-51.718l-98.712-96.917h479.439c69.719 0 125.968 55.227 125.968 123.013v79.792c0 20.198 16.374 36.571 36.571 36.571s36.571-16.374 36.571-36.571v-79.792c0-108.486-89.294-196.156-199.111-196.156h-479.439zM788.265 690.701h-479.439c-69.719 0-125.968-55.227-125.968-123.013v-79.792c0-20.198-16.374-36.571-36.571-36.571s-36.571 16.374-36.571 36.571v79.792c0 108.486 89.294 196.156 199.111 196.156h479.439l-98.712 96.917c-14.412 14.15-14.625 37.305-0.474 51.718s37.305 14.625 51.718 0.474l162.54-159.584c14.6-14.334 14.6-37.858 0-52.192l-162.54-159.584c-14.412-14.15-37.567-13.938-51.718 0.474s-13.938 37.567 0.474 51.718l98.712 96.917z" />
<glyph unicode="&#xe933;" glyph-name="play" data-tags="play" d="M853.888 386.292l-595.191-378.758c-34.080-21.687-79.289-11.641-100.976 22.439-7.468 11.736-11.435 25.358-11.435 39.269v757.515c0 40.396 32.747 73.143 73.143 73.143 13.911 0 27.533-3.967 39.269-11.435l595.191-378.758c34.080-21.687 44.127-66.896 22.439-100.976-5.747-9.032-13.407-16.692-22.439-22.439z" />
<glyph unicode="&#xe934;" glyph-name="drop" data-tags="drop" horiz-adv-x="1081" d="M260.551 442.084c8.271-9.812 13.297-22.595 13.297-36.552 0-17.468-7.873-33.098-20.265-43.534l-0.086-0.071-87.154-73.102c-9.952-8.743-23.084-14.077-37.463-14.077-31.419 0-56.889 25.47-56.889 56.889 0 17.877 8.246 33.829 21.142 44.258l0.107 0.084 87.097 73.102c9.811 8.268 22.592 13.292 36.547 13.292 17.44 0 33.048-7.848 43.483-20.205l0.070-0.085zM988.103 140.004c-56.036-47.047-144.612-54.784-240.526-27.705l309.589 259.755c10.012-99.157-13.084-185.060-69.063-232.107zM445.44 316.245c-55.407 65.276-98.958 142.595-126.118 227.253l-1.313 4.739 384.398 322.56c81.156-42.624 149.674-98.228 205.483-164.842l0.853-1.046c55.41-65.281 98.977-142.596 126.171-227.248l1.317-4.745-384.341-322.56c-81.186 42.603-149.726 98.211-205.54 164.842l-0.853 1.046zM366.080 881.152c56.092 47.047 144.668 54.784 240.583 27.705l-309.532-259.755c-10.012 99.157 13.028 185.060 69.006 232.107zM317.44 214.528c8.285-9.817 13.32-22.61 13.32-36.58 0-17.453-7.86-33.071-20.232-43.506l-0.085-0.070-174.308-146.204c-9.973-8.821-23.163-14.207-37.611-14.207-31.419 0-56.889 25.47-56.889 56.889 0 17.918 8.284 33.902 21.231 44.33l0.11 0.085 174.364 146.261c9.811 8.268 22.592 13.292 36.547 13.292 17.44 0 33.048-7.848 43.483-20.205l0.070-0.085zM544.996 100.75c8.285-9.817 13.32-22.61 13.32-36.58 0-17.453-7.86-33.071-20.232-43.506l-0.085-0.070-87.154-73.102c-9.952-8.743-23.084-14.077-37.463-14.077-31.419 0-56.889 25.47-56.889 56.889 0 17.877 8.246 33.829 21.142 44.258l0.107 0.084 87.154 73.102c9.811 8.268 22.592 13.292 36.547 13.292 17.44 0 33.048-7.848 43.483-20.205l0.070-0.085z" />
<glyph unicode="&#xe935;" glyph-name="success" data-tags="success" horiz-adv-x="1401" d="M186.991 709.754l-155.053-158.357 411.692-420.466 154.423-159 775.265 791.787-155.053 158.357-619.582-632.786z" />
<glyph unicode="&#xe936;" glyph-name="phone2" data-tags="phone2" horiz-adv-x="683" d="M176.41 960c-96.849 0-176.41-70.306-176.41-156v-711.999c0-85.79 79.561-156.001 176.41-156.001h329.846c96.849 0 176.41 70.21 176.41 156.001v711.999c0 85.694-79.561 156-176.41 156h-329.846zM115.692 786.545c0.82 0.034 1.641 0.034 2.462 0h446.359c14.499 0 26.254-10.419 26.256-23.273v-465.454c-0.003-12.854-11.757-23.273-26.256-23.273h-446.359c-14.499 0-26.254 10.419-26.256 23.273v465.454c-0.057 12.048 10.265 22.143 23.795 23.273zM341.333 223.637c57.725 0 105.026-41.926 105.026-93.091 0-51.096-47.301-93.091-105.026-93.091-57.647 0-105.026 41.994-105.026 93.091 0 51.165 47.379 93.091 105.026 93.091z" />
<glyph unicode="&#xe937;" glyph-name="store" data-tags="store" d="M1005.251 620.501l-64.030 64.030c-53.209-53.21-139.48-53.21-192.69 0s-53.21 139.48 0 192.69l-64.031 64.030c-24.999 24.999-65.906 24.999-90.904 0l-574.847-574.846c-24.999-24.999-24.999-65.908 0-90.907l64.029-64.030c53.21 53.21 139.481 53.21 192.69 0 53.21-53.209 53.21-139.48 0-192.689l64.031-64.031c25-25 65.907-25 90.906 0l574.846 574.845c24.999 25 24.999 65.908 0 90.907zM294.331 434.726c-15.451-24.237-50.021-24.234-65.469 0.002-7.786 12.215-7.789 28.353-0.009 40.572 15.443 24.255 50.042 24.259 65.488 0.002 7.782-12.22 7.778-28.36-0.009-40.576zM382.106 346.951c-15.452-24.237-50.023-24.234-65.47 0.002-7.785 12.216-7.789 28.353-0.009 40.572 15.442 24.257 50.042 24.259 65.487 0.002 7.782-12.22 7.779-28.36-0.009-40.576zM469.879 259.179c-15.45-24.238-50.020-24.236-65.467 0-7.786 12.215-7.789 28.353-0.011 40.572 15.443 24.257 50.041 24.26 65.488 0.003 7.782-12.219 7.778-28.359-0.009-40.575zM557.654 171.403c-15.45-24.238-50.021-24.235-65.468 0.002-7.786 12.216-7.789 28.353-0.010 40.572 15.442 24.256 50.042 24.259 65.488 0.003 7.78-12.22 7.777-28.361-0.010-40.576z" />
<glyph unicode="&#xe938;" glyph-name="close_alt" data-tags="close_alt" d="M512 587.636l372.364 372.364 139.636-139.636-372.364-372.364 372.364-372.364-139.636-139.636-372.364 372.364-372.364-372.364-139.636 139.636 372.364 372.364-372.364 372.364 139.636 139.636z" />
<glyph unicode="&#xe939;" glyph-name="ticket" data-tags="ticket" d="M1005.251 620.501l-64.030 64.030c-53.209-53.21-139.48-53.21-192.69 0s-53.21 139.48 0 192.69l-64.031 64.030c-24.999 24.999-65.906 24.999-90.904 0l-574.847-574.846c-24.999-24.999-24.999-65.908 0-90.907l64.029-64.030c53.21 53.21 139.481 53.21 192.69 0 53.21-53.209 53.21-139.48 0-192.689l64.031-64.031c25-25 65.907-25 90.906 0l574.846 574.845c24.999 25 24.999 65.908 0 90.907zM294.331 434.726c-15.451-24.237-50.021-24.234-65.469 0.002-7.786 12.215-7.789 28.353-0.009 40.572 15.443 24.255 50.042 24.259 65.488 0.002 7.782-12.22 7.778-28.36-0.009-40.576zM382.106 346.951c-15.452-24.237-50.023-24.234-65.47 0.002-7.785 12.216-7.789 28.353-0.009 40.572 15.442 24.257 50.042 24.259 65.487 0.002 7.782-12.22 7.779-28.36-0.009-40.576zM469.879 259.179c-15.45-24.238-50.020-24.236-65.467 0-7.786 12.215-7.789 28.353-0.011 40.572 15.443 24.257 50.041 24.26 65.488 0.003 7.782-12.219 7.778-28.359-0.009-40.575zM557.654 171.403c-15.45-24.238-50.021-24.235-65.468 0.002-7.786 12.216-7.789 28.353-0.010 40.572 15.442 24.256 50.042 24.259 65.488 0.003 7.78-12.22 7.777-28.361-0.010-40.576z" />
<glyph unicode="&#xe93a;" glyph-name="mail-border" data-tags="mail-border" horiz-adv-x="1303" d="M177.723 846.222c-32.446 0-59.239-25.73-59.239-56.889v-682.667c0-31.159 26.793-56.889 59.239-56.889h947.827c32.446 0 59.239 25.73 59.239 56.889v682.667c0 31.159-26.793 56.889-59.239 56.889h-947.827zM177.723 960h947.827c97.88 0 177.718-76.67 177.718-170.667v-682.667c0-93.997-79.838-170.667-177.718-170.667h-947.827c-97.88 0-177.718 76.67-177.718 170.667v682.667c0 93.997 79.838 170.667 177.718 170.667zM651.636 367.462l558.421 375.386c26.803 18.018 63.74 104.849 82.502 79.109s12.244-61.211-14.559-79.229l-592.392-398.222c-20.397-13.712-47.546-13.712-67.943 0l-592.392 398.222c-26.803 18.018-33.321 53.489-14.559 79.229s55.699-61.092 82.502-79.109l558.421-375.386z" />
<glyph unicode="&#xe93b;" glyph-name="record" data-tags="record" d="M1024 448c0-282.77-229.23-512-512-512s-512 229.23-512 512c0 282.77 229.23 512 512 512s512-229.23 512-512z" />
<glyph unicode="&#xe93c;" glyph-name="alert" data-tags="alert" d="M927.135 352.354h-5.535v230.708c-4.105 209.288-186.312 376.938-409.669 376.938s-405.565-167.65-409.669-376.938v-230.708h-5.397c-53.497 0-96.865-40.643-96.865-90.779v-85.073c0-50.136 43.368-90.779 96.865-90.779h250.603c2.581-83.383 75.452-149.723 164.463-149.723s161.882 66.34 164.463 149.723h250.742c53.497 0 96.865 40.643 96.865 90.779v85.073c0 50.136-43.368 90.779-96.865 90.779z" />
<glyph unicode="&#xe93d;" glyph-name="camera" data-tags="camera" horiz-adv-x="1434" d="M1369.884 870.114c-35.044 21.15-78.052 19.387-111.502-1.762l-219.819-126.898v142.761c0 42.299-28.672 75.787-68.494 75.787h-901.575c-39.822-1.762-68.494-35.25-68.494-77.549v-870.664c0-42.299 28.672-75.787 68.494-75.787h903.168c38.229 0 68.494 31.725 68.494 75.787v144.523l216.633-123.373c15.929-12.337 36.636-19.387 60.53-19.387 14.336 0 36.636 1.762 52.565 14.1 39.822 21.15 63.716 68.737 63.716 118.086v606.293c0 51.112-25.486 96.936-63.716 118.086z" />
<glyph unicode="&#xe93e;" glyph-name="favorite" data-tags="favorite" horiz-adv-x="1170" d="M585.143 242.606l183.163-94.5-34.913 199.767 145.44 139.127-201.245 28.698-92.446 183.825-92.446-183.825-201.245-28.698 145.44-139.127-34.913-199.767 183.163 94.5zM585.143 110.92l-339.036-174.92 64.75 370.487-274.286 262.38 379.054 54.053 169.518 337.080 169.518-337.080 379.054-54.053-274.286-262.38 64.75-370.487-339.036 174.92z" />
<glyph unicode="&#xe93f;" glyph-name="logout" data-tags="logout" d="M640 192h-256v576l-256 128h512v-192h64v256h-704v-832l384-192v192h320v320h-64v-256zM1024 576l-256 192v-128h-256v-128h256v-128l256 192z" />
<glyph unicode="&#xe940;" glyph-name="shirt" data-tags="shirt" horiz-adv-x="1303" d="M973.566 960h-180.839c-13.974-65.121-71.812-113.975-141.117-113.975-69.278 0-127.117 48.841-141.077 113.975h-180.812l-329.721-274.658 209.698-224.731 120.023 96.944v-592.188h643.845v592.188l120.009-96.944 209.698 224.731-329.707 274.658z" />
<glyph unicode="&#xe941;" glyph-name="substitution" data-tags="substitution" horiz-adv-x="967" d="M350.021 926.673c-42.937-1.047-78.586-36.696-79.633-79.633s32.905-76.889 75.842-75.842l32.217 0.786-314.591-314.591c-31.087-31.087-32.289-80.347-2.681-109.954s78.867-28.406 109.954 2.681l314.591 314.591-0.786-32.217c-1.047-42.937 32.905-76.889 75.842-75.842 21.496 0.524 41.115 9.684 55.532 24.101s23.577 34.036 24.101 55.532l5.363 219.909c1.047 42.937-32.905 76.889-75.842 75.842l-219.909-5.363zM795.976 545.888l-314.591-314.591 0.786 32.217c1.047 42.937-32.905 76.889-75.842 75.842-42.909-1.019-78.615-36.724-79.633-79.633l-5.363-219.909c-1.047-42.937 32.905-76.889 75.842-75.842l219.909 5.363c21.468 0.496 41.115 9.684 55.532 24.101s23.605 34.064 24.101 55.532c1.047 42.937-32.905 76.889-75.842 75.842l-32.217-0.786 314.591 314.591c31.087 31.087 32.289 80.347 2.681 109.954s-78.867 28.406-109.954-2.681z" />
<glyph unicode="&#xe942;" glyph-name="ball" data-tags="ball" d="M72.205 8.172c-66.499 66.479-86.365 179.079-62.444 304.95l367.414-367.394c-125.892-23.941-238.471-4.055-304.97 62.444zM237.152 722.848c86.877 86.918 185.735 149.976 282.852 189.319l456.196-456.216c-39.342-97.117-102.421-195.975-189.298-282.872-86.918-86.897-185.776-149.956-282.872-189.298l-456.175 456.196c39.342 97.137 102.401 195.995 189.298 282.872zM951.828 887.795c66.499-66.479 86.385-179.079 62.424-304.95l-367.373 367.394c125.871 23.921 238.451 4.055 304.95-62.444z" />
<glyph unicode="&#xe943;" glyph-name="cage" data-tags="cage" horiz-adv-x="614" d="M563.2 243.2c28.277 0 51.2-22.923 51.2-51.2v-204.8c0-28.277-22.923-51.2-51.2-51.2h-102.4c-28.277 0-51.2 22.923-51.2 51.2v204.8c0 28.277 22.923 51.2 51.2 51.2v102.4h-307.2v-102.4c28.277 0 51.2-22.923 51.2-51.2v-204.8c0-28.277-22.923-51.2-51.2-51.2h-102.4c-28.277 0-51.2 22.923-51.2 51.2v204.8c0 28.277 22.923 51.2 51.2 51.2v665.6c0 28.277 22.923 51.2 51.2 51.2s51.2-22.923 51.2-51.2v-460.8h307.2v460.8c0 28.277 22.923 51.2 51.2 51.2s51.2-22.923 51.2-51.2v-665.6z" />
<glyph unicode="&#xe944;" glyph-name="check" data-tags="check" horiz-adv-x="1434" d="M477.867 126.166l819.772 810.763c31.103 30.761 81.531 30.761 112.634 0s31.103-80.635 0-111.397l-876.089-866.462c-31.103-30.761-81.531-30.761-112.634 0l-398.222 393.846c-31.103 30.761-31.103 80.635 0 111.397s81.531 30.761 112.634 0l341.905-338.148z" />
<glyph unicode="&#xe945;" glyph-name="dashboard" data-tags="dashboard" d="M51.2 960h358.4c28.277 0 51.2-22.923 51.2-51.2v-358.4c0-28.277-22.923-51.2-51.2-51.2h-358.4c-28.277 0-51.2 22.923-51.2 51.2v358.4c0 28.277 22.923 51.2 51.2 51.2zM614.4 960h358.4c28.277 0 51.2-22.923 51.2-51.2v-358.4c0-28.277-22.923-51.2-51.2-51.2h-358.4c-28.277 0-51.2 22.923-51.2 51.2v358.4c0 28.277 22.923 51.2 51.2 51.2zM614.4 396.8h358.4c28.277 0 51.2-22.923 51.2-51.2v-358.4c0-28.277-22.923-51.2-51.2-51.2h-358.4c-28.277 0-51.2 22.923-51.2 51.2v358.4c0 28.277 22.923 51.2 51.2 51.2zM51.2 396.8h358.4c28.277 0 51.2-22.923 51.2-51.2v-358.4c0-28.277-22.923-51.2-51.2-51.2h-358.4c-28.277 0-51.2 22.923-51.2 51.2v358.4c0 28.277 22.923 51.2 51.2 51.2z" />
<glyph unicode="&#xe946;" glyph-name="star" data-tags="star" d="M337.273 650.861l132.993 281.989c17.073 36.2 66.394 36.2 83.467 0l132.993-281.989 297.413-45.498c38.16-5.838 53.368-54.93 25.742-83.092l-215.168-219.343 50.78-309.875c6.521-39.795-33.39-70.139-67.534-51.346l-265.96 146.386-265.96-146.386c-34.144-18.793-74.055 11.552-67.534 51.346l50.78 309.875-215.168 219.343c-27.626 28.162-12.418 77.255 25.742 83.092l297.413 45.498z" />
<glyph unicode="&#xe947;" glyph-name="link" data-tags="link" d="M369.469 363.603c-21.797 29.161-15.845 70.48 13.299 92.295 29.154 21.823 70.47 15.862 92.274-13.308 27.537-36.84 69.704-59.894 115.556-63.18s90.87 13.519 123.379 46.064l133.813 133.894c60.054 62.223 59.195 161.135-1.93 222.304-61.054 61.097-159.869 62.081-221.42 2.599l-77.18-76.786c-25.818-25.686-67.561-25.564-93.228 0.272-25.658 25.827-25.537 67.572 0.272 93.249l77.86 77.453c113.899 110.085 294.955 108.511 406.925-3.538 112.054-112.133 113.444-293.291 2.733-407.984l-134.608-134.703c-59.543-59.607-142.025-90.397-226.036-84.376s-161.264 48.258-211.71 115.746zM654.531 532.397c21.797-29.161 15.845-70.48-13.299-92.295-29.154-21.823-70.47-15.862-92.274 13.308-27.537 36.84-69.704 59.894-115.556 63.18s-90.87-13.519-123.379-46.064l-133.813-133.894c-60.054-62.223-59.195-161.135 1.93-222.304 61.041-61.084 159.856-62.094 221.284-2.735l76.731 76.786c25.743 25.761 67.486 25.761 93.229 0 25.734-25.752 25.734-67.497-0.001-93.25l-77.547-77.588c-113.899-110.085-294.955-108.511-406.925 3.538-112.054 112.133-113.444 293.291-2.733 407.984l134.608 134.703c59.543 59.607 142.025 90.397 226.036 84.376s161.264-48.258 211.71-115.746z" />
<glyph unicode="&#xe948;" glyph-name="car" data-tags="car" d="M905.671 831.451c-11.378 32.366-43.236 55.406-80.782 55.406h-625.778c-37.547 0-68.836-23.040-80.782-55.406l-118.329-328.594v-438.857c0-30.171 25.6-54.857 56.889-54.857h56.889c31.289 0 56.889 24.686 56.889 54.857v54.857h682.667v-54.857c0-30.171 25.6-54.857 56.889-54.857h56.889c31.289 0 56.889 24.686 56.889 54.857v438.857l-118.329 328.594zM199.111 283.429c-47.218 0-85.333 36.754-85.333 82.286s38.116 82.286 85.333 82.286c47.218 0 85.333-36.754 85.333-82.286s-38.116-82.286-85.333-82.286zM824.889 283.429c-47.218 0-85.333 36.754-85.333 82.286s38.116 82.286 85.333 82.286c47.218 0 85.333-36.754 85.333-82.286s-38.116-82.286-85.333-82.286zM113.778 557.714l85.333 246.857h625.778l85.333-246.857h-796.444z" />
<glyph unicode="&#xe949;" glyph-name="food" data-tags="food" d="M287.049 352.338l151.558 148.206-375.948 367.111c-83.544-81.697-83.544-214.192 0-296.412l224.391-218.905zM650.144 447.127c81.937-37.182 197.078-10.998 282.229 72.27 102.288 100.026 122.103 243.519 43.379 320.502-78.189 76.46-224.926 57.607-327.75-42.419-85.151-83.268-111.928-195.862-73.904-275.988l-522.686-511.127 75.511-73.841 368.986 359.779 368.451-360.303 75.511 73.841-368.451 360.303 78.724 76.983z" />
<glyph unicode="&#xe94a;" glyph-name="gift" data-tags="gift" d="M868.686 727.273h108.768c25.706 0 46.545-20.839 46.545-46.545v-232.727c0-25.706-20.839-46.545-46.545-46.545h-46.545v-418.909c0-25.706-20.839-46.545-46.545-46.545h-744.727c-25.706 0-46.545 20.839-46.545 46.545v418.909h-46.545c-25.706 0-46.545 20.839-46.545 46.545v232.727c0 25.706 20.839 46.545 46.545 46.545h108.768c-10.052 21.161-15.677 44.833-15.677 69.818 0 89.972 72.937 162.909 162.909 162.909 91.269 0 159.252-54.386 206.602-140.478 0.963-1.752 1.914-3.509 2.852-5.273 0.938 1.764 1.889 3.522 2.852 5.273 47.351 86.092 115.333 140.478 206.602 140.478 89.972 0 162.909-72.937 162.909-162.909 0-24.986-5.625-48.657-15.677-69.818zM558.545 29.091h279.273v372.364h-279.273v-372.364zM465.455 29.091v372.364h-279.273v-372.364h279.273zM427.58 774.66c-32.649 59.363-73.758 92.249-125.034 92.249-38.56 0-69.818-31.259-69.818-69.818s31.259-69.818 69.818-69.818h146.816c-6.222 16.294-13.476 32.285-21.782 47.387zM721.455 727.273c38.56 0 69.818 31.259 69.818 69.818s-31.259 69.818-69.818 69.818c-51.277 0-92.385-32.887-125.034-92.249-8.306-15.102-15.56-31.093-21.782-47.387h146.816z" />
<glyph unicode="&#xe94b;" glyph-name="walk" data-tags="walk" horiz-adv-x="683" d="M183.032 265.495l95.094-87.219-82.18-203.512c-9.392-22.612-32.872-36.611-57.526-36.611-7.044 0-14.088 1.077-21.132 3.23-31.698 10.768-48.134 43.071-36.394 72.144l102.138 251.967zM5.759 488.389l56.352 99.064c15.262 25.843 37.568 47.378 64.57 62.453 130.314 71.068 146.75 69.991 163.186 68.914l88.050-5.384c27.002-1.077 45.786-7.537 136.184-129.214 3.522-4.307 8.218-7.537 15.262-8.614l108.008-15.075c29.35-4.307 49.308-29.073 44.612-55.993s-31.698-45.225-61.048-40.918l-108.008 15.075c-35.22 5.384-66.918 22.612-86.876 49.532-4.696 6.461-8.218 11.845-12.914 17.229l-69.266-201.358 96.268-88.296c14.088-12.921 25.828-30.15 32.872-47.378l73.962-198.128c11.74-29.073-5.87-61.377-37.568-71.068-7.044-2.154-12.914-3.23-19.958-3.23-25.828 0-49.308 15.075-58.7 37.687l-73.962 198.128c-1.174 2.154-2.348 3.23-3.522 5.384l-171.404 158.287c-24.654 22.612-34.046 53.839-27.002 83.989l37.568 152.903c-3.522-2.154-7.044-4.307-11.74-6.461-10.566-5.384-18.784-13.998-24.654-23.689l-56.352-99.064c-9.392-16.152-28.176-25.843-46.96-25.843-8.218 0-16.436 2.154-24.654 5.384-25.828 12.921-35.22 41.995-22.306 65.684zM470.45 840.023c-7.086-59.403-65.876-102.291-131.312-95.792s-112.738 59.923-105.652 119.326c7.086 59.403 65.876 102.291 131.312 95.792s112.738-59.923 105.652-119.326z" />
<glyph unicode="&#xe94c;" glyph-name="exp" data-tags="exp" d="M491.185 955.086c13.104 6.552 28.527 6.552 41.631 0l465.445-232.727c34.306-17.153 34.306-66.11 0-83.263l-465.445-232.727c-13.104-6.552-28.527-6.552-41.631 0l-465.445 232.727c-34.306 17.153-34.306 66.11 0 83.263l465.445 232.727zM512 34.585l444.63 222.319c22.992 11.496 50.95 2.177 62.446-20.816s2.177-50.951-20.815-62.447l-465.445-232.727c-13.104-6.552-28.527-6.552-41.631 0l-465.445 232.727c-22.992 11.496-32.311 39.455-20.815 62.447s39.454 32.312 62.446 20.816l444.63-222.319zM956.63 489.632c22.992 11.496 50.95 2.177 62.446-20.816s2.177-50.951-20.815-62.447l-465.445-232.727c-13.104-6.552-28.527-6.552-41.631 0l-465.445 232.727c-22.992 11.496-32.311 39.455-20.815 62.447s39.454 32.312 62.446 20.816l444.63-222.319 444.63 222.319z" />
<glyph unicode="&#xe94d;" glyph-name="animations" data-tags="animations" d="M748.168 755.2h147.832c70.692 0 128-58.945 128-131.657v-482.743c0-72.712-57.308-131.657-128-131.657h-768c-70.692 0-128 58.945-128 131.657v482.743c0 72.712 57.308 131.657 128 131.657h147.832l72.667 112.115c7.913 12.209 21.235 19.542 35.501 19.542h256c14.266 0 27.588-7.333 35.501-19.542l72.667-112.115zM512 184.686c117.821 0 213.333 98.242 213.333 219.429s-95.513 219.429-213.333 219.429c-117.821 0-213.333-98.242-213.333-219.429s95.513-219.429 213.333-219.429z" />
<glyph unicode="&#xe94e;" glyph-name="concours" data-tags="concours" d="M425.759 301.95l-30.879-241.070 132.524 82.451c13.029 8.106 29.306 8.106 42.336 0l132.537-82.46-30.848 241.097c-37.961-15.847-79.426-24.57-122.857-24.57-43.414 0-84.864 8.716-122.813 24.551zM348.596 347.592c-78.528 62.376-129.168 160.61-129.168 271.108 0 188.495 147.362 341.301 329.143 341.301s329.143-152.805 329.143-341.301c0-110.476-50.62-208.693-129.122-271.071l46.478-363.257c4.531-35.415-32.411-60.574-61.953-42.194l-184.546 114.818-184.546-114.818c-29.545-18.382-66.489 6.783-61.953 42.2l46.524 363.214z" />
<glyph unicode="&#xe94f;" glyph-name="hotesses" data-tags="hotesses" d="M768 53.029c0-24.237-19.103-43.886-42.667-43.886s-659.103 0-682.667 0c-23.564 0-42.667 19.648-42.667 43.886v87.771c0 121.187 95.513 219.429 213.333 219.429h341.333c117.821 0 213.333-98.242 213.333-219.429v-87.771zM384 448c-117.821 0-213.333 98.242-213.333 219.429s95.513 219.429 213.333 219.429c117.821 0 213.333-98.242 213.333-219.429s-95.513-219.429-213.333-219.429zM1024 53.029c0-24.237-19.103-43.886-42.667-43.886s-42.667 19.648-42.667 43.886v87.739c-0.044 59.999-39.52 112.379-96 127.378-22.816 6.059-36.536 29.996-30.645 53.464s29.163 37.58 51.978 31.521c94.133-25 159.927-112.299 160-212.33v-87.771zM672.084 794.752c-22.828 6.012-36.595 29.92-30.75 53.4s29.089 37.641 51.916 31.629c94.395-24.86 160.418-112.347 160.418-212.571s-66.023-187.712-160.418-212.571c-22.828-6.012-46.072 8.149-51.916 31.629s7.923 47.388 30.75 53.4c56.637 14.916 96.251 67.408 96.251 127.543s-39.614 112.627-96.251 127.543z" />
<glyph unicode="&#xe950;" glyph-name="salles_reunions" data-tags="salles_reunions" d="M707.048 773.818c-26.93 0-48.762 20.839-48.762 46.545s21.831 46.545 48.762 46.545h97.524c80.791 0 146.286-62.517 146.286-139.636v-651.636c0-77.119-65.494-139.636-146.286-139.636h-585.143c-80.791 0-146.286 62.517-146.286 139.636v651.636c0 77.119 65.494 139.636 146.286 139.636h97.524c26.93 0 48.762-20.839 48.762-46.545s-21.831-46.545-48.762-46.545l5.517-26.397c-26.93 0 411.509-7.956 384.578-7.956v34.353zM365.714 960h292.571c53.861 0 97.524-41.678 97.524-93.091v-93.091c0-51.413-43.663-93.091-97.524-93.091h-292.571c-53.861 0-97.524 41.678-97.524 93.091v93.091c0 51.413 43.663 93.091 97.524 93.091zM365.714 866.909v-93.091h292.571v93.091h-292.571z" />
<glyph unicode="&#xe951;" glyph-name="view" data-tags="view" horiz-adv-x="1593" d="M796.444 155.429c-159.941 0-289.616 130.926-289.616 292.571s129.676 292.571 289.616 292.571c159.941 0 289.616-130.926 289.616-292.571s-129.676-292.571-289.616-292.571v0zM796.444 960c-459.91 0-796.444-512-796.444-512s336.534-512 796.444-512c459.91 0 796.444 512 796.444 512s-336.534 512-796.444 512zM796.444 594.286c-79.934 0-144.808-65.463-144.808-146.286s64.874-146.286 144.808-146.286c79.934 0 144.808 65.463 144.808 146.286s-64.874 146.286-144.808 146.286z" />
<glyph unicode="&#xe952;" glyph-name="flickr" data-tags="flickr" d="M877.714 960c80.791 0 146.286-65.494 146.286-146.286v-731.429c0-80.791-65.494-146.286-146.286-146.286h-731.429c-80.791 0-146.286 65.494-146.286 146.286v731.429c0 80.791 65.494 146.286 146.286 146.286h731.429zM458.447 462.99c0 97.119-72.464 175.853-161.849 175.853-89.389 0-161.849-78.73-161.849-175.853 0-97.119 72.464-175.853 161.849-175.853 89.389 0 161.849 78.73 161.849 175.853zM872.404 465.299c0 95.829-74.552 173.518-166.515 173.518s-166.515-77.685-166.515-173.518c0-95.829 74.552-173.518 166.515-173.518s166.515 77.685 166.515 173.518z" />
<glyph unicode="&#xe953;" glyph-name="exclamation" data-tags="exclamation" horiz-adv-x="205" d="M102.4-64c56.554 0 102.4 40.452 102.4 90.353s-45.846 90.353-102.4 90.353c-56.554 0-102.4-40.452-102.4-90.353s45.846-90.353 102.4-90.353zM68.267 960h68.267c37.703 0 68.267-30.564 68.267-68.267v-586.29c0-37.703-30.564-68.267-68.267-68.267h-68.267c-37.703 0-68.267 30.564-68.267 68.267v586.29c0 37.703 30.564 68.267 68.267 68.267z" />
<glyph unicode="&#xe954;" glyph-name="repair" data-tags="repair" d="M796.817 928.217c9.903 9.903 6.885 21.069-6.742 24.161-99.871 23.060-204.574-6.992-277.011-79.509-76.347-76.347-92.712-146.933-92.431-232.341 0.281-72.483-15.803-134.783-83.932-195.748l-288.957-258.652c-39.566-35.413-56.311-89.798-43.516-141.333s53.033-91.772 104.567-104.567c51.534-12.795 105.92 3.95 141.333 43.516l258.652 288.957c60.965 68.129 123.265 84.213 195.748 83.932 85.408-0.282 155.994 16.084 232.341 92.431 72.517 72.437 102.57 177.141 79.509 277.011-3.091 13.627-14.258 16.645-24.161 6.742l-175.732-175.731c-11.264-10.13-26.685-14.278-41.511-11.166l-103.738 27.742c-7.849 2.493-14.868 7.084-20.299 13.276-6.192 5.431-10.783 12.45-13.277 20.3l-27.742 103.738c-3.112 14.826 1.036 30.247 11.166 41.511l175.731 175.732zM521.097 438.883l94.662 107.94c-51.071-8.365-98.428-24.76-142.612-50.516 12.854-21.413 29.003-40.807 47.95-57.424z" />
<glyph unicode="&#xe955;" glyph-name="messenger" data-tags="messenger" horiz-adv-x="1097" d="M572.202 960c-282.77 0-512-212.249-512-474.074 0-149.191 74.453-282.267 190.807-369.168v-180.758l174.331 95.678c46.525-12.876 95.814-19.826 146.861-19.826 282.77 0 512 212.249 512 474.074s-229.23 474.074-512 474.074zM623.084 321.58l-130.385 139.062-254.41-139.062 279.851 297.086 133.565-139.062 251.23 139.062-279.851-297.086z" />
<glyph unicode="&#xe956;" glyph-name="whatsapp" data-tags="whatsapp" horiz-adv-x="1097" d="M1080.238 461.187c0-275.49-225.041-498.813-502.693-498.813-88.144 0-170.951 22.528-242.995 62.066l-278.312-88.439 90.738 267.628c-45.773 75.162-72.135 163.317-72.135 257.559 0 275.49 225.064 498.813 502.704 498.813 277.675 0 502.693-223.323 502.693-498.813zM577.545 880.56c-233.062 0-422.639-188.132-422.639-419.374 0-91.762 29.912-176.742 80.509-245.874l-52.804-155.75 162.418 51.621c66.731-43.816 146.671-69.37 232.528-69.37 233.028 0 422.639 188.109 422.639 419.351s-189.599 419.396-422.65 419.396zM831.395 346.305c-3.106 5.086-11.31 8.158-23.62 14.268-12.334 6.11-72.932 35.703-84.196 39.765-11.298 4.073-19.536 6.121-27.739-6.11-8.203-12.242-31.824-39.765-39.026-47.923-7.191-8.181-14.37-9.205-26.704-3.083-12.311 6.11-52.008 19.035-99.078 60.678-36.625 32.404-61.36 72.408-68.551 84.662-7.179 12.231-0.751 18.842 5.404 24.929 5.552 5.484 12.334 14.279 18.489 21.413 6.178 7.145 8.226 12.231 12.311 20.4 4.13 8.158 2.071 15.292-1.024 21.424-3.072 6.11-27.739 66.276-38.002 90.761-10.263 24.462-20.514 20.389-27.716 20.389-7.179 0-15.406 1.024-23.62 1.024s-21.572-3.061-32.87-15.292c-11.287-12.242-43.11-41.825-43.11-101.979 0-60.166 44.134-118.295 50.313-126.441 6.155-8.146 85.22-135.623 210.489-184.582 125.281-48.936 125.281-32.609 147.877-30.561 22.574 2.037 72.886 29.571 83.194 58.106 10.24 28.581 10.24 53.055 7.179 58.152z" />
<glyph unicode="&#xe957;" glyph-name="phone3" data-tags="phone3" horiz-adv-x="1103" d="M43.384 807.738l130.88 127.547 2.882 2.271c20.618 14.748 43.493 22.443 66.698 22.443s46.080-7.695 64.081-21.228l4.19-2.271 172.699-165.256c37.932-36.555 37.672-93.96 0-128.948l-80.551-74.813c26.422-54.956 60.513-105.5 113.157-152.176 53.746-47.669 109.902-81.216 166.136-106.694l80.762 75.009c37.007 34.37 102.153 34.37 140.354-1.543l170.197-158.853c37.2-34.549 37.2-94.398 0-128.948l-132.486-123.024c-41.48-33.067-98.853-43.942-149.043-28.063l-3.41 0.369c-173.279 62.928-331.787 148.312-476.985 283.165-148.347 137.778-251.317 300.527-304.725 442.63-18.647 49.897-5.005 102.923 35.163 138.381zM416.254 709.176l-167.002 158.782c-2.088 1.616-3.929 2.368-5.408 2.368s-3.32-0.752-4.95-1.976l-129.917-123.068c-12.171-9.689-16.996-30.022-11.211-44.356 48.599-129.825 145.776-283.995 282.382-410.869 133.052-123.573 278.011-201.532 441.192-261.117 22.7-7.075 40.961-4.024 58.112 9.587l128.216 119.081c10.701 9.939 3.5 3.403 3.5 1.142s7.201-8.796-3.5 1.142l-171.391 159.18c-2.535 2.354-3.771 3.385-2.378 3.385s0.157-1.031-2.378-3.385l-124.291-115.436-6.536-1.152-26.047 10.888c-2.778 1.093-7.923 3.233-15.098 6.399-11.921 5.261-25.195 11.51-39.485 18.727-40.823 20.62-81.648 44.885-119.78 72.657-13.692 9.972-26.814 20.247-39.148 30.705l-9.4 7.493c-19.528 17.286-37.919 36.395-55.189 57.022-28.222 33.708-52.157 69.797-71.908 105.889-11.864 21.68-19.712 38.581-23.679 48.446l-9.158 24.302 1.673 6.53 19.471 16.874 104.666 97.209c0.432 0.402-0.021 1.584-1.359 3.548z" />
<glyph unicode="&#xe958;" glyph-name="mail-border2" data-tags="mail-border2" horiz-adv-x="1229" d="M1035.698 960c106.403 0 193.095-87.191 193.095-194.207v-635.586c0-107.015-86.692-194.207-193.095-194.207h-842.595c-106.403 0-193.095 87.191-193.095 194.207v635.586c0 107.015 86.692 194.207 193.095 194.207h842.595zM1053.192 596.275l-388.459-273.559c-30.221-21.277-70.445-21.277-100.666 0l-388.546 273.559 0.027-466.068c0-9.509 8.1-17.655 17.554-17.655h842.595c9.454 0 17.554 8.147 17.554 17.655l-0.060 466.068zM1035.698 783.448h-842.595c-9.454 0-17.554-8.147-17.554-17.655l-0.027-56.468 438.879-308.936 438.792 308.936 0.060 56.468c0 9.509-8.1 17.655-17.554 17.655z" />
</font>
</defs>
</svg>
